<svg xmlns="http://www.w3.org/2000/svg" width="46" height="46" viewBox="0 0 46 46">
  <path id="linkedin" d="M26,3A23,23,0,1,0,49,26,23,23,0,0,0,26,3ZM17.367,13.356a2.5,2.5,0,0,1,2.689,2.509,2.556,2.556,0,0,1-2.867,2.509A2.5,2.5,0,0,1,14.5,15.865,2.556,2.556,0,0,1,17.367,13.356ZM20.25,35.583H14.5V20.25h5.75Zm19.167,0H34V27.2c0-2.317-1.443-2.852-1.984-2.852s-2.346.356-2.346,2.852v8.38H24.083V20.25h5.593v2.139c.721-1.248,2.164-2.139,4.87-2.139s4.87,2.139,4.87,6.954Z" transform="translate(-3 -3)" fill="#1c30e0"/>
</svg>
