<svg xmlns="http://www.w3.org/2000/svg" width="1047.547" height="977.325" viewBox="0 0 1047.547 977.325">
  <g id="pattern" transform="matrix(0.961, 0.276, -0.276, 0.961, 134.506, 190.3)" opacity="0.65">
    <g id="Group_119" data-name="Group 119" transform="translate(-50.666 -182.741)">
      <g id="Group_116" data-name="Group 116">
        <g id="Group_86" data-name="Group 86">
          <path id="Path_1055" data-name="Path 1055" d="M-142.626-36.712A564.558,564.558,0,0,0,21.07-23.383c49.212-3.19,95.271-87.267,130.17-54.947,79.292,73.431,1.381-28.132,26.419-67.211,5.137-8.017,107.159,66.009,45.747-54.9-14.459-28.467,71.7-2.032,95.7,20.056,43.824,40.319,89.148,103.277,153.206,20.936,6.034-7.756,19.684-6.07,27.629-12.14,19.118-14.6,23.459-40.666,19.674-63.361s-14.109-43.972-19.01-66.473c-4.623-21.222,1.919-76.526,16.343-59.635,40.728,47.693,67.078,41.269,69.282-22.273.883-25.454,12.863-50.133,30.125-69.948,6.849-7.862,16.8-12.656,25.617-18.564,16.963-11.372,29.927-27.1,42.631-42.582" transform="translate(142.626 514.421)" fill="none" stroke="#1c30e0" stroke-miterlimit="10" stroke-width="2"/>
          <path id="Path_1056" data-name="Path 1056" d="M-98.74-2.471A519.849,519.849,0,0,0,61.828,9.676C109.966,5.823,154.9-76.3,188.836-45.944c77.288,69.135,1.935-29.478,27.943-66.759,5.583-8,103.957,63.876,46.4-52.4-13.335-26.939,70.339-1.125,94.12,20.532,43.8,39.766,88.306,100.153,152.865,21.857,6.2-7.519,19.947-5.811,28.018-11.861,18.9-14.165,23.978-39.541,20.107-61.8C554.039-220.8,545.142-240.2,541.3-262c-3.622-20.574.02-76.163,15.361-60.466,44.629,45.664,68.716,37.591,67.311-24.348-.565-24.917,15.11-48.587,32.835-68.222,6.96-7.753,16.612-12.847,25.373-18.826,16.6-11.233,29.6-26.524,42.115-41.134" transform="translate(110.363 485.438)" fill="none" stroke="#1c30e0" stroke-miterlimit="10" stroke-width="2" opacity="0.962"/>
          <path id="Path_1057" data-name="Path 1057" d="M-54.855,31.77C-3.649,44.323,50.25,47.591,102.586,42.734c47.063-4.515,90.869-84.688,123.844-56.291,75.273,64.821,2.622-30.8,29.467-66.307,6.048-8,100.714,61.748,47.046-49.914-12.216-25.416,68.981-.219,92.536,21.009C439.245-69.555,483.043-11.729,548-85.991c6.373-7.286,20.209-5.553,28.406-11.582,18.673-13.734,24.475-38.414,20.54-60.247C592.237-183.957,584.77-201.5,582-222.579c-2.625-19.956-1.8-75.806,14.378-61.3,48.741,43.717,70.331,33.866,65.34-26.423-2.02-24.4,17.408-46.992,35.545-66.5,7.091-7.625,16.4-13.073,25.128-19.089,16.186-11.155,29.27-25.952,41.6-39.686" transform="translate(78.101 456.455)" fill="none" stroke="#1c30e0" stroke-miterlimit="10" stroke-width="2" opacity="0.923"/>
          <path id="Path_1058" data-name="Path 1058" d="M-10.97,66.011C39.181,78.654,92.316,81.417,143.344,75.792c46-5.07,88.652-83.414,120.681-56.964,73.242,60.487,3.434-32.075,30.99-65.855,6.53-8,97.422,59.626,47.7-47.423-11.1-23.9,67.578.738,90.951,21.486,43.656,38.754,86.932,93.945,152.184,23.7,6.555-7.056,20.469-5.3,28.794-11.3,18.442-13.308,24.955-37.284,20.973-58.689-5.183-27.858-11.211-43.569-12.922-63.9-1.63-19.371-3.537-75.47,13.4-62.129,53.063,41.807,71.913,30.095,63.37-28.5-3.486-23.907,19.676-45.424,38.255-64.771,7.21-7.508,16.2-13.28,24.883-19.351,15.8-11.043,28.942-25.38,41.084-38.239" transform="translate(45.839 427.473)" fill="none" stroke="#1c30e0" stroke-miterlimit="10" stroke-width="2" opacity="0.885"/>
          <path id="Path_1059" data-name="Path 1059" d="M32.916,100.251c49.1,12.733,101.459,14.908,151.187,8.6,44.931-5.7,86.421-82.154,117.518-57.636,71.193,56.132,4.364-33.311,32.515-65.4,7.03-8.015,94.07,57.508,48.344-44.932-9.994-22.389,66.207,1.659,89.366,21.963,43.6,38.23,86.41,90.878,151.843,24.62,6.746-6.831,20.728-5.04,29.183-11.025,18.207-12.887,25.421-36.152,21.405-57.132-5.661-29.58-10.235-43.487-10.892-63.046-.632-18.824-5.2-75.164,12.414-62.96,57.582,39.887,73.451,26.282,61.4-30.572-4.967-23.433,21.941-43.857,40.965-63.046,7.328-7.391,15.994-13.485,24.639-19.614,15.415-10.928,28.613-24.807,40.568-36.792" transform="translate(13.577 398.49)" fill="none" stroke="#1c30e0" stroke-miterlimit="10" stroke-width="2" opacity="0.846"/>
          <path id="Path_1060" data-name="Path 1060" d="M76.8,134.492c48.04,12.822,99.634,14.407,148.06,7.416C268.724,135.576,309.035,61,339.216,83.6c69.12,51.755,5.4-34.5,34.038-64.95,7.548-8.026,90.647,55.394,48.993-42.44-8.893-20.888,64.838,2.578,87.781,22.439,43.554,37.7,86,87.847,151.5,25.541,6.946-6.607,20.985-4.785,29.571-10.747C709.068.971,716.976-21.574,712.941-42.131c-6.145-31.3-9.243-43.435-8.863-62.19.372-18.316-6.81-74.9,11.432-63.791,62.279,37.917,74.935,22.435,59.428-32.647-6.468-22.975,24.2-42.291,43.675-61.32a209.775,209.775,0,0,1,24.394-19.876c15.031-10.81,28.285-24.235,40.053-35.345" transform="translate(-18.685 369.508)" fill="none" stroke="#1c30e0" stroke-miterlimit="10" stroke-width="2" opacity="0.808"/>
          <path id="Path_1061" data-name="Path 1061" d="M120.687,168.733c46.984,12.912,97.81,13.9,144.932,6.234,42.8-6.967,81.908-79.673,111.192-58.98,67.016,47.356,6.532-35.637,35.562-64.5,8.083-8.036,87.135,53.281,49.643-39.949-7.8-19.4,63.47,3.5,86.2,22.916,43.506,37.175,85.711,84.863,151.162,26.462,7.155-6.385,21.241-4.532,29.96-10.468A53.4,53.4,0,0,0,751.605-3.568c-6.635-33.022-8.227-43.414-6.833-61.333,1.389-17.851-8.364-74.673,10.449-64.623,67.131,35.861,76.358,18.563,57.457-34.722-7.992-22.53,26.463-40.728,46.385-59.595a245.812,245.812,0,0,1,24.149-20.138c14.65-10.689,27.956-23.663,39.537-33.9" transform="translate(-50.948 340.525)" fill="none" stroke="#1c30e0" stroke-miterlimit="10" stroke-width="2" opacity="0.769"/>
          <path id="Path_1062" data-name="Path 1062" d="M164.572,202.973c45.929,13,95.986,13.4,141.805,5.052,41.731-7.6,79.617-78.456,108.029-59.652,64.873,42.935,7.749-36.721,37.086-64.046,8.634-8.042,83.514,51.166,50.291-37.458-6.72-17.925,62.1,4.415,84.612,23.393,43.461,36.645,85.535,81.933,150.821,27.383,7.375-6.162,21.495-4.279,30.348-10.189,17.468-11.66,26.751-32.745,22.7-52.46-7.132-34.741-7.177-43.423-4.8-60.477,2.426-17.428-9.877-74.492,9.467-65.454,72.112,33.693,77.715,14.678,55.486-36.8-9.54-22.092,28.72-39.166,49.095-57.869,7.674-7.045,15.392-14.1,23.9-20.4,14.269-10.565,27.628-23.091,39.022-32.45" transform="translate(-83.21 311.543)" fill="none" stroke="#1c30e0" stroke-miterlimit="10" stroke-width="2" opacity="0.731"/>
          <path id="Path_1063" data-name="Path 1063" d="M208.457,237.214c44.873,13.092,94.164,12.891,138.678,3.869,40.666-8.242,77.3-77.255,104.866-60.324,62.682,38.5,9.042-37.751,38.61-63.594,9.2-8.041,79.757,49.039,50.941-34.967-5.651-16.473,60.739,5.331,83.027,23.87,43.417,36.113,85.473,79.068,150.481,28.3,7.605-5.939,21.747-4.029,30.737-9.911,17.212-11.262,27.178-31.607,23.137-50.9-7.636-36.46-6.085-43.457-2.774-59.62,3.491-17.045-11.361-74.355,8.485-66.286,77.2,31.391,79.006,10.792,53.515-38.871-11.115-21.656,30.975-37.605,51.8-56.144,7.788-6.931,15.192-14.3,23.66-20.663,13.891-10.439,27.3-22.518,38.506-31" transform="translate(-115.472 282.56)" fill="none" stroke="#1c30e0" stroke-miterlimit="10" stroke-width="2" opacity="0.692"/>
          <path id="Path_1064" data-name="Path 1064" d="M252.343,271.456c43.817,13.181,92.341,12.379,135.551,2.686,39.6-8.883,74.943-76.071,101.7-61,60.43,34.043,10.4-38.73,40.134-63.142,9.783-8.031,75.831,46.887,51.59-32.476-4.6-15.05,59.375,6.245,81.442,24.346,43.376,35.579,85.52,76.276,150.14,29.224,7.845-5.712,22-3.78,31.125-9.632C860.981,150.6,871.626,131,867.6,112.121c-8.148-38.178-4.94-43.513-.745-58.763,4.593-16.7-12.823-74.259,7.5-67.117C956.714,15.182,954.586-6.841,925.9-54.7c-12.717-21.217,33.227-36.047,54.514-54.418,7.9-6.818,14.992-14.5,23.415-20.925,13.514-10.31,26.971-21.946,37.99-29.555" transform="translate(-147.735 253.577)" fill="none" stroke="#1c30e0" stroke-miterlimit="10" stroke-width="2" opacity="0.654"/>
          <path id="Path_1065" data-name="Path 1065" d="M296.228,305.7c42.762,13.271,90.52,11.864,132.424,1.5,38.537-9.528,72.547-74.9,98.54-61.668,58.1,29.586,11.811-39.656,41.658-62.689,10.379-8.009,71.693,44.685,52.239-29.985-3.561-13.668,58.012,7.159,79.857,24.823,43.338,35.043,85.672,73.565,149.8,30.145,8.1-5.481,22.247-3.534,31.513-9.354,16.69-10.482,28.014-29.327,24-47.789-8.668-39.893-3.738-43.581,1.285-57.906,5.741-16.374-14.271-74.2,6.52-67.948,87.575,26.337,81.4,3.065,49.574-43.021-14.343-20.769,35.478-34.491,57.225-52.693,8.012-6.706,14.794-14.7,23.17-21.187,13.139-10.178,26.642-21.374,37.475-28.107" transform="translate(-179.997 224.595)" fill="none" stroke="#1c30e0" stroke-miterlimit="10" stroke-width="2" opacity="0.615"/>
          <path id="Path_1066" data-name="Path 1066" d="M340.114,339.937c41.706,13.361,88.7,11.345,129.3.322,37.474-10.176,70.1-73.75,95.377-62.34,55.685,25.136,13.269-40.533,43.182-62.237,10.989-7.974,80.161,38.441,52.888-27.493-.185-12.6,56.651,8.071,78.273,25.3,43.3,34.5,85.921,70.941,149.459,31.066,8.356-5.244,22.494-3.289,31.9-9.075,16.422-10.1,28.423-28.185,24.435-46.231-9.2-41.608-2.475-43.653,3.314-57.05,6.943-16.068-15.713-74.177,5.537-68.779,92.824,23.577,82.517-.758,47.6-45.1-15.991-20.308,37.725-32.938,59.935-50.968,8.123-6.595,14.6-14.9,22.925-21.45,12.766-10.043,26.314-20.8,36.959-26.66" transform="translate(-212.259 195.612)" fill="none" stroke="#1c30e0" stroke-miterlimit="10" stroke-width="2" opacity="0.577"/>
          <path id="Path_1067" data-name="Path 1067" d="M384,374.177c40.651,13.451,86.878,10.822,126.169-.861,36.41-10.827,67.594-72.606,92.214-63.012,53.155,20.715,14.766-41.361,44.706-61.785,11.613-7.921,77.707,35.935,53.537-25,1.113-11.163,55.291,8.981,76.688,25.776,43.268,33.962,86.259,68.41,149.118,31.987,8.627-5,22.74-3.047,32.291-8.8,16.151-9.722,28.829-27.042,24.867-44.674-9.734-43.32,1.192-42.755,5.344-56.194,10.9-14.034-17.154-74.184,4.555-69.611,98.086,20.663,83.594-4.544,45.633-47.17-17.659-19.829,39.971-31.386,62.645-49.242C1110-.89,1116.164-9.5,1124.445-16.118c12.394-9.906,25.985-20.229,36.444-25.213" transform="translate(-244.521 166.63)" fill="none" stroke="#1c30e0" stroke-miterlimit="10" stroke-width="2" opacity="0.538"/>
          <path id="Path_1068" data-name="Path 1068" d="M427.884,408.418c39.6,13.54,85.057,10.3,123.042-2.044,35.347-11.482,65.019-71.465,89.051-63.684,50.5,16.35,16.293-42.143,46.23-61.333,12.248-7.851,75.252,33.429,54.187-22.511,2.411-9.721,53.933,9.89,75.1,26.253,43.236,33.417,86.676,65.977,148.777,32.908,8.907-4.743,22.984-2.808,32.679-8.518,15.876-9.35,29.232-25.9,25.3-43.117-10.282-45.03,2.467-42.654,7.373-55.337,12.19-13.435-18.6-74.218,3.573-70.442,103.345,17.6,84.639-8.289,43.662-49.245-19.342-19.331,42.215-29.837,65.354-47.517,8.343-6.374,14.2-15.288,22.436-21.974,12.024-9.767,25.657-19.657,35.928-23.765" transform="translate(-276.783 137.647)" fill="none" stroke="#1c30e0" stroke-miterlimit="10" stroke-width="2" opacity="0.5"/>
          <path id="Path_1069" data-name="Path 1069" d="M471.77,442.659c38.54,13.63,83.235,9.763,119.915-3.226,34.283-12.141,61.675-65.937,85.888-64.356,44.7,20.555,17.843-42.881,47.754-60.88,12.894-7.76,72.8,30.922,54.836-20.02,3.709-8.279,52.575,10.8,73.519,26.73,43.208,32.869,87.16,63.645,148.436,33.829,9.195-4.474,23.226-2.571,33.067-8.239,15.6-8.984,29.631-24.754,25.733-41.56-10.84-46.737,3.742-42.552,9.4-54.48,13.483-12.836-20.046-74.275,2.591-71.273,108.588,14.4,85.664-11.993,41.691-51.319-21.036-18.813,44.458-28.29,68.065-45.791,8.452-6.266,14.009-15.481,22.191-22.236,11.657-9.625,25.328-19.084,35.413-22.318" transform="translate(-309.046 108.665)" fill="none" stroke="#1c30e0" stroke-miterlimit="10" stroke-width="2" opacity="0.462"/>
          <path id="Path_1070" data-name="Path 1070" d="M515.655,476.9c37.484,13.72,81.412,9.227,116.788-4.409,33.218-12.8,59.276-64.413,82.725-65.028,42.231,16.778,19.411-43.577,49.278-60.428C778,339.387,834.788,375.45,819.93,329.5c5.006-6.837,51.219,11.7,71.934,27.206,43.182,32.318,87.7,61.417,148.1,34.75,9.491-4.191,23.466-2.338,33.455-7.961,15.318-8.622,30.027-23.609,26.166-40-11.409-48.441,5.017-42.451,11.432-53.624,14.777-12.237-21.5-74.352,1.608-72.1,113.8,11.065,86.677-15.656,39.72-53.394-22.737-18.273,46.7-26.746,70.775-44.065,8.56-6.158,13.816-15.673,21.947-22.5,11.291-9.48,25-18.512,34.9-20.871" transform="translate(-341.308 79.682)" fill="none" stroke="#1c30e0" stroke-miterlimit="10" stroke-width="2" opacity="0.423"/>
          <path id="Path_1071" data-name="Path 1071" d="M559.54,511.14c36.429,13.81,79.588,8.686,113.66-5.591,32.152-13.473,56.876-62.89,79.562-65.7,39.76,13,20.989-44.232,50.8-59.976,14.218-7.509,67.889,25.91,56.134-15.038,6.3-5.395,49.865,12.607,70.349,27.683,43.158,31.763,88.276,59.293,147.755,35.671,9.794-3.89,23.7-2.108,33.844-7.682,15.035-8.265,30.42-22.463,26.6-38.445-11.991-50.143,4.627-43.718,13.461-52.767,13.86-14.2-22.97-74.445.626-72.936,118.986,7.612,87.685-19.28,37.749-55.469-24.443-17.714,48.938-25.2,73.484-42.34,8.668-6.051,13.625-15.863,21.7-22.761,10.927-9.333,24.672-17.94,34.382-19.423" transform="translate(-373.57 50.7)" fill="none" stroke="#1c30e0" stroke-miterlimit="10" stroke-width="2" opacity="0.385"/>
          <path id="Path_1072" data-name="Path 1072" d="M603.426,545.381c35.373,13.9,77.762,8.14,110.533-6.774,31.084-14.146,54.476-61.366,76.4-66.373,37.29,9.225,22.574-44.851,52.325-59.524,14.893-7.345,65.434,23.4,56.783-12.547,7.6-3.953,48.511,13.51,68.764,28.16,43.138,31.2,88.881,57.273,147.415,36.592,10.1-3.57,23.941-1.882,34.232-7.4,14.749-7.913,30.811-21.317,27.032-36.888-12.585-51.841,6.139-43.623,15.491-51.91,15.4-13.646-24.448-74.553-.357-73.767,124.127,4.051,88.695-22.868,35.779-57.544-26.15-17.135,51.175-23.666,76.194-40.614,8.775-5.945,13.435-16.051,21.457-23.024,10.566-9.183,24.343-17.367,33.866-17.975" transform="translate(-405.833 21.717)" fill="none" stroke="#1c30e0" stroke-miterlimit="10" stroke-width="2" opacity="0.346"/>
          <path id="Path_1073" data-name="Path 1073" d="M647.311,579.6c34.318,13.989,75.934,7.588,107.406-7.956,30.014-14.824,52.077-59.843,73.236-67.045,34.819,5.448,24.16-45.433,53.849-59.072,15.575-7.154,62.98,20.9,57.433-10.056,8.9-2.511,47.159,14.41,67.18,28.637,43.12,30.641,89.5,55.354,147.074,37.513,10.416-3.227,24.175-1.659,34.621-7.125,14.461-7.566,31.2-20.17,27.464-35.33-13.193-53.536,7.653-43.486,17.52-51.054,16.964-13.011-25.788-71.891-1.339-74.6,128.439-14.221,89.711-26.424,33.808-59.618-27.855-16.54,53.412-22.129,78.9-38.889,8.882-5.839,13.247-16.237,21.212-23.286,10.206-9.032,24.015-16.8,33.351-16.528" transform="translate(-438.095 -7.247)" fill="none" stroke="#1c30e0" stroke-miterlimit="10" stroke-width="2" opacity="0.308"/>
          <path id="Path_1074" data-name="Path 1074" d="M691.2,613.537c33.262,14.079,74.1,7.031,104.279-9.139,28.941-15.507,49.677-58.319,70.073-67.717,32.348,1.671,25.741-45.983,55.373-58.62,16.262-6.935,60.526,18.392,58.082-7.564,10.2-1.069,45.808,15.309,65.595,29.114,43.105,30.074,90.108,53.534,146.733,38.434,10.73-2.861,24.407-1.442,35.009-6.846,14.171-7.225,31.587-19.022,27.9-33.773-13.817-55.226,9.159-43.308,19.55-50.2,18.54-12.292-27.255-72.335-2.321-75.43,133.291-16.544,90.736-29.952,31.836-61.693-29.557-15.928,55.647-20.6,81.614-37.163,8.989-5.735,13.061-16.421,20.968-23.548,9.85-8.878,23.686-16.223,32.835-15.081" transform="translate(-470.357 -35.922)" fill="none" stroke="#1c30e0" stroke-miterlimit="10" stroke-width="2" opacity="0.269"/>
          <path id="Path_1075" data-name="Path 1075" d="M735.082,647.126c32.206,14.169,72.266,6.468,101.151-10.322,27.863-16.2,47.277-56.8,66.91-68.389,29.877-2.106,27.314-46.5,56.9-58.167,16.953-6.686,58.071,15.885,58.731-5.074,11.495.373,44.458,16.205,64.01,29.59,43.094,29.5,90.7,51.808,146.392,39.354,11.044-2.47,24.638-1.229,35.4-6.568,13.88-6.887,31.973-17.874,28.33-32.216-14.456-56.911,10.649-43.094,21.58-49.34,20.113-11.495-28.751-72.8-3.3-76.261,138.185-18.794,91.775-33.454,29.866-63.768-31.255-15.3,57.881-19.064,84.325-35.438,9.095-5.632,12.877-16.6,20.723-23.81,9.494-8.722,23.357-15.65,32.319-13.634" transform="translate(-502.619 -64.254)" fill="none" stroke="#1c30e0" stroke-miterlimit="10" stroke-width="2" opacity="0.231"/>
          <path id="Path_1076" data-name="Path 1076" d="M778.967,680.411c31.151,14.259,70.425,5.9,98.024-11.5,26.781-16.889,44.878-55.272,63.747-69.061,27.407-5.883,28.875-46.99,58.421-57.715,17.648-6.406,55.617,13.379,59.38-2.582,12.792,1.815,43.11,17.1,62.426,30.067,43.084,28.925,91.252,50.171,146.052,40.275,11.356-2.05,24.867-1.021,35.786-6.289,13.586-6.555,32.357-16.725,28.763-30.659-15.114-58.592,12.117-42.849,23.609-48.484,21.672-10.626-30.275-73.283-4.286-77.093,143.118-20.98,92.827-36.936,27.9-65.842-32.948-14.668,60.114-17.536,87.034-33.713,9.2-5.529,12.7-16.782,20.479-24.073,9.142-8.563,23.028-15.078,31.8-12.186" transform="translate(-534.881 -92.281)" fill="none" stroke="#1c30e0" stroke-miterlimit="10" stroke-width="2" opacity="0.192"/>
          <path id="Path_1077" data-name="Path 1077" d="M822.853,713.427c30.1,14.348,68.579,5.328,94.9-12.687,25.693-17.587,42.478-53.749,60.584-69.733,24.936-9.66,30.421-47.452,59.945-57.263,18.344-6.1,53.162,10.873,60.029-.091,14.09,3.257,41.763,17.992,60.841,30.544,43.078,28.342,91.755,48.614,145.711,41.2,11.663-1.6,25.093-.819,36.174-6.01,13.292-6.227,32.739-15.575,29.2-29.1-15.79-60.267,13.558-42.578,25.638-47.627,23.206-9.7-32.011-75.234-5.268-77.924,149.128-15,93.894-40.4,25.925-67.917-34.635-14.022,62.347-16.01,89.744-31.987,9.307-5.427,12.517-16.959,20.234-24.335,8.792-8.4,22.7-14.506,31.289-10.739" transform="translate(-567.144 -120.038)" fill="none" stroke="#1c30e0" stroke-miterlimit="10" stroke-width="2" opacity="0.154"/>
          <path id="Path_1078" data-name="Path 1078" d="M866.738,746.2c29.04,14.438,66.726,4.752,91.77-13.869,24.6-18.29,37.79-54.724,57.421-70.4,20.453-16.337,31.948-47.888,61.469-56.811,19.039-5.754,50.708,8.367,60.678,2.4,15.388,4.7,40.416,18.882,59.256,31.021,43.075,27.754,91.96,41.413,145.37,42.117,12.013.158,25.318-.624,36.563-5.732,13-5.9,33.12-14.424,29.628-27.544-16.487-61.936,14.971-42.286,27.668-46.771,24.707-8.726-33.557-75.387-6.25-78.755,153.984-18.994,94.975-43.848,23.953-69.992-36.315-13.368,64.579-14.487,92.454-30.262,9.412-5.326,12.341-17.133,19.989-24.6,8.444-8.241,22.371-13.934,30.773-9.292" transform="translate(-599.406 -147.555)" fill="none" stroke="#1c30e0" stroke-miterlimit="10" stroke-width="2" opacity="0.115"/>
          <path id="Path_1079" data-name="Path 1079" d="M910.623,778.763c27.985,14.528,64.866,4.172,88.643-15.052,23.5-19,35.943-52.247,54.258-71.077,18.4-18.913,33.454-48.3,62.993-56.359,19.733-5.382,48.254,5.861,61.328,4.891,16.686,6.141,39.071,19.769,57.671,31.5,43.075,27.159,92.5,41.814,145.03,43.038,12.262.286,25.54-.435,36.952-5.453,12.7-5.585,33.5-13.274,30.061-25.987-17.207-63.6,16.354-41.979,29.7-45.914,26.174-7.719-35.114-75.543-7.233-79.586,158.794-23.029,96.072-47.284,21.983-72.066-37.99-12.707,66.809-12.967,95.164-28.536,9.517-5.226,12.17-17.3,19.745-24.86,8.1-8.078,22.043-13.361,30.257-7.844" transform="translate(-631.668 -174.858)" fill="none" stroke="#1c30e0" stroke-miterlimit="10" stroke-width="2" opacity="0.077"/>
          <path id="Path_1080" data-name="Path 1080" d="M954.509,811.134c26.929,14.617,63,3.589,85.515-16.234,22.387-19.708,34.34-49.865,51.095-71.749,16.622-21.711,34.934-48.694,64.517-55.906,20.423-4.979,46.16,2.114,61.977,7.383,18.516,6.168,37.741,20.631,56.087,31.974,43.112,26.5,92.814,44.343,144.689,43.959,12.524-.093,25.76-.254,37.34-5.175,12.405-5.271,33.88-12.122,30.494-24.43-17.951-65.252,17.712-41.661,31.727-45.057,27.606-6.69-36.68-75.7-8.215-80.418,163.561-27.1,97.183-50.711,20.012-74.141-39.658-12.041,69.023-11.48,97.874-26.81,9.617-5.137,12-17.474,19.5-25.122,7.757-7.912,21.714-12.789,29.741-6.4" transform="translate(-663.931 -201.97)" fill="none" stroke="#1c30e0" stroke-miterlimit="10" stroke-width="2" opacity="0.038"/>
          <path id="Path_1081" data-name="Path 1081" d="M998.394,843.332c25.874,14.707,61.12,3,82.388-17.417s32.879-47.654,47.932-72.421,36.39-49.068,66.041-55.454c21.108-4.546,43.345.848,62.626,9.873s36.383,21.537,54.5,32.451c43.083,25.949,92.978,43.019,144.348,44.88,12.783.463,25.977-.081,37.728-4.9,12.109-4.962,34.258-10.97,30.927-22.872-18.723-66.9,19.043-41.336,33.756-44.2,29-5.648-38.255-75.861-9.2-81.249,168.287-31.2,98.307-54.129,18.041-76.216-41.32-11.37,71.269-9.934,100.584-25.085,9.728-5.028,11.837-17.639,19.255-25.384s21.386-12.217,29.226-4.949" transform="translate(-696.192 -228.91)" fill="none" stroke="#1c30e0" stroke-miterlimit="10" stroke-width="2" opacity="0"/>
        </g>
        <g id="Group_115" data-name="Group 115" transform="translate(65.793 92.137)" opacity="0.45" style="isolation: isolate">
          <g id="Group_87" data-name="Group 87" transform="translate(0)">
            <path id="Path_1082" data-name="Path 1082" d="M143.516,254.083l-.461.023a62.306,62.306,0,0,1-37.265-9.761l.909-1.393c20.9,13.637,48.947,12.752,73.2-2.31,26.433-16.416,42.574-44.673,51.46-65.486,2.585-6.055,4.611-15.043,6.756-24.559,3.766-16.71,7.324-32.493,14.241-34.8,2.219-.741,4.616-.037,7.122,2.093,13.456,11.438,24.755,16.488,34.538,15.456,12.15-1.289,20.182-11.746,27.949-21.86,7.532-9.806,14.646-19.074,24.876-18.8,29.7.775,56.528,18.223,82.471,35.1q2.666,1.734,5.312,3.449c7.052,4.562,14.958,10.109,23.328,15.982,34.348,24.1,77.1,54.094,98.042,41.6,11.585-6.909,15.551-26.725,11.786-58.9-2.655-22.686,7.911-51.207,25.695-69.358,11.854-12.1,25.675-18.061,38.917-16.784,25.668,2.472,31.765-20.129,37.657-41.987,1.387-5.143,2.82-10.461,4.48-15.263,5.2-15.041,24.658-13.089,41.826-11.366A138.507,138.507,0,0,0,734.1-23.779c26.182-.926,43.844-8.46,54.009-23.036,5.782-8.291,8.873-18.648,11.862-28.665,1.107-3.71,2.252-7.546,3.52-11.234a122.67,122.67,0,0,1,49.126-63.054c22.78-14.7,48.268-19.982,71.767-14.875l-.354,1.625c-47.489-10.32-100.855,24.151-118.966,76.844-1.257,3.656-2.4,7.475-3.5,11.17-3.027,10.142-6.156,20.63-12.092,29.141-10.486,15.034-28.589,22.806-55.315,23.746a139.592,139.592,0,0,1-17.969-1.073c-17.364-1.741-35.318-3.543-40.088,10.255-1.641,4.746-3,9.8-4.446,15.152C668.679,13.256,665.6,24.671,659.928,33c-6.5,9.534-15.554,13.6-27.7,12.431-16.317-1.572-29.437,7.992-37.569,16.293-17.455,17.816-27.831,45.779-25.231,68,3.9,33.348-.216,53.145-12.586,60.522a23.218,23.218,0,0,1-10.807,3.09C522.577,194.59,486.686,169.4,457,148.57c-8.357-5.864-16.25-11.4-23.276-15.947q-2.648-1.713-5.316-3.451c-25.749-16.747-52.375-34.065-81.607-34.828-9.389-.242-16.248,8.691-23.514,18.152-7.981,10.391-16.234,21.136-29.093,22.5-10.261,1.08-21.97-4.094-35.791-15.843-2.061-1.751-3.866-2.335-5.518-1.783-6.027,2.013-9.809,18.79-13.145,33.591-2.162,9.592-4.2,18.652-6.849,24.847-8.98,21.034-25.31,49.6-52.112,66.246A79.01,79.01,0,0,1,143.516,254.083Z" transform="translate(-105.79 166.54)" fill="#1c30e0"/>
          </g>
          <g id="Group_88" data-name="Group 88" transform="translate(10.515 5.837)" opacity="0.963">
            <path id="Path_1083" data-name="Path 1083" d="M180.306,277.3a59.334,59.334,0,0,1-34.814-8.563l.849-1.363c20.237,12.608,47.341,11.075,70.735-4,25.6-16.555,41.358-44.467,50.066-64.968,2.539-5.981,4.542-14.772,6.664-24.077,3.755-16.473,7.3-32.032,14.136-34.406,2.141-.743,4.45-.136,6.863,1.807.724.587,1.44,1.149,2.142,1.7,12.143,9.5,22.434,13.562,31.462,12.433,11.86-1.484,19.758-11.7,27.4-21.576,7.486-9.682,14.553-18.828,24.73-18.657,10.881.159,22.273,2.825,36.936,8.642,16.916,6.681,32.96,16.626,50.681,27.984,8.077,5.195,17.284,11.739,27.031,18.667,3.339,2.374,6.742,4.792,10.186,7.218,15.8,11.065,31.2,20.048,44.55,25.975,17.814,7.911,30.664,9.171,39.286,3.853,8.085-4.987,12.594-16.141,13.4-33.152a172.906,172.906,0,0,0-.885-25.346c-1.711-17.521,4.35-39.256,15.817-56.724C630.82,72.532,648.351,61.616,665.65,62.8c6.792.492,12.461-.665,17.333-3.539,11.617-6.853,16.355-22.349,20.936-37.335,1.533-5.014,3.118-10.2,4.925-14.872,5.008-13,20.584-12.763,37.476-11.306q1.8.154,3.593.317c6.669.6,12.968,1.161,18.443.871,21.539-1.09,37.079-6.579,47.564-16.8a46.611,46.611,0,0,0,5.854-6.955c5.665-8.245,8.757-18.472,11.748-28.361,1.144-3.786,2.328-7.7,3.641-11.457a118.98,118.98,0,0,1,8.791-19.387,118.878,118.878,0,0,1,30.516-35.241c24.953-19.475,54.867-27.231,82.069-21.28l-.343,1.569c-26.734-5.849-56.163,1.8-80.739,20.978a117.294,117.294,0,0,0-30.107,34.767A117.44,117.44,0,0,0,838.678-66.1c-1.3,3.725-2.48,7.622-3.62,11.392C832.032-44.7,828.9-34.357,823.1-25.905a48.216,48.216,0,0,1-6.056,7.195C806.264-8.2,790.377-2.559,768.438-1.456c-5.587.3-11.941-.273-18.669-.875q-1.79-.161-3.588-.317c-16.259-1.4-31.233-1.672-35.84,10.284-1.786,4.619-3.292,9.546-4.887,14.763-4.671,15.28-9.5,31.079-21.656,38.249-5.163,3.045-11.136,4.274-18.262,3.758-16.7-1.149-33.7,9.506-46.656,29.223-11.275,17.176-17.238,38.513-15.562,55.683a174.531,174.531,0,0,1,.891,25.581c-.847,17.819-5.48,29.085-14.164,34.442-9.108,5.617-22.447,4.389-40.78-3.752-13.44-5.968-28.939-15-44.822-26.129-3.447-2.428-6.852-4.849-10.193-7.223-9.732-6.917-18.924-13.451-26.968-18.625-17.647-11.311-33.621-21.214-50.4-27.842-14.474-5.743-25.691-8.373-36.37-8.53-9.367-.159-16.2,8.679-23.434,18.034-7.839,10.138-15.944,20.621-28.467,22.188-9.477,1.18-20.154-2.99-32.651-12.762-.708-.554-1.433-1.121-2.162-1.713-1.978-1.592-3.72-2.1-5.326-1.538-5.993,2.082-9.767,18.638-13.1,33.245-2.138,9.378-4.157,18.236-6.751,24.349-8.8,20.707-24.727,48.912-50.673,65.689a77.93,77.93,0,0,1-36.467,12.5Q180.892,277.272,180.306,277.3Z" transform="translate(-145.492 144.5)" fill="#1c30e0"/>
          </g>
          <g id="Group_89" data-name="Group 89" transform="translate(21.031 11.671)" opacity="0.926">
            <path id="Path_1084" data-name="Path 1084" d="M217.1,300.554a56.322,56.322,0,0,1-31.908-7.428l.788-1.333c19.28,11.4,46.079,9.165,68.273-5.691,24.773-16.692,40.142-44.261,48.672-64.449,2.492-5.906,4.477-14.5,6.579-23.6,3.754-16.251,7.3-31.6,14.04-34.026,2.06-.741,4.276-.222,6.587,1.546.488.373.972.735,1.45,1.091l.642.48c31.3,23.49,44.58,6.441,57.421-10.049,7.44-9.554,14.464-18.584,24.579-18.526,12.809.067,25.219,4.146,36.832,8.318,18.126,6.448,35.042,16.494,50.621,26.389,8.619,5.512,18.531,12.655,29.026,20.218q3.944,2.843,8,5.752a234.658,234.658,0,0,0,44.61,25.026c17.553,7.352,30.279,8.323,38.905,2.966,8.157-5.065,12.83-16.173,13.888-33.015a177.018,177.018,0,0,0-.441-25.206c-1.446-17.661,4.526-38.8,15.976-56.536,13.077-20.227,30.31-31.4,47.271-30.653,6.711.295,12.341-.954,17.207-3.821,11.615-6.842,16.716-21.63,21.65-35.931,1.687-4.889,3.431-9.945,5.392-14.492C748.423,15.3,763.909,15.46,780.673,16.77l2.55.2c7.013.551,13.637,1.076,19.392.68C823.934,16.2,839.323,10.478,849.662.166a47.567,47.567,0,0,0,5.776-6.992c5.546-8.2,8.637-18.286,11.626-28.045,1.184-3.865,2.409-7.861,3.77-11.691a115.052,115.052,0,0,1,8.908-19.261,115.417,115.417,0,0,1,30.919-34.446c25.06-18.788,54.959-26.146,82.031-20.183l-.332,1.512c-26.63-5.864-56.071,1.392-80.771,19.91A113.87,113.87,0,0,0,881.08-65.044a113.491,113.491,0,0,0-8.787,19c-1.35,3.8-2.569,7.778-3.748,11.626-3.023,9.868-6.149,20.072-11.825,28.46a49.075,49.075,0,0,1-5.965,7.22C840.14,11.85,824.427,17.715,802.72,19.194c-5.861.4-12.547-.125-19.618-.681l-2.549-.2c-16.8-1.313-31.1-1.475-35.971,9.883-1.939,4.5-3.6,9.3-5.351,14.385-5.025,14.567-10.221,29.629-22.327,36.76-5.132,3.023-11.04,4.342-18.061,4.033-16.4-.719-33.131,10.194-45.9,29.947-11.271,17.463-17.153,38.236-15.733,55.57a178.508,178.508,0,0,1,.442,25.428c-1.106,17.615-5.887,28.812-14.615,34.233-9.084,5.64-22.273,4.707-40.321-2.853A236.263,236.263,0,0,1,537.8,200.5q-4.049-2.9-8-5.754c-10.477-7.55-20.372-14.681-28.953-20.169-15.5-9.845-32.326-19.839-50.31-26.237-11.489-4.127-23.756-8.161-36.319-8.227-9.359-.046-16.15,8.684-23.35,17.929-7.99,10.259-16.653,21.382-30.1,22.1-7.9.424-17.44-2.739-29.47-11.767l-.639-.478c-.482-.36-.971-.726-1.464-1.1-1.893-1.447-3.569-1.878-5.123-1.319-5.947,2.141-9.724,18.492-13.056,32.918-2.118,9.167-4.118,17.826-6.661,23.856-8.612,20.382-24.144,48.226-49.235,65.132a77.114,77.114,0,0,1-35.213,12.956Q218.5,300.479,217.1,300.554Z" transform="translate(-185.195 122.475)" fill="#1c30e0"/>
          </g>
          <g id="Group_90" data-name="Group 90" transform="translate(31.547 17.501)" opacity="0.889">
            <path id="Path_1085" data-name="Path 1085" d="M253.949,323.855A53.421,53.421,0,0,1,224.9,317.5l.725-1.3c18.687,10.41,44.519,7.512,65.81-7.381,23.9-16.714,38.9-43.992,47.279-63.931,2.444-5.831,4.409-14.23,6.489-23.121,3.747-16.02,7.287-31.152,13.939-33.648,1.98-.743,4.107-.312,6.322,1.28.359.258.717.51,1.072.76q.491.346.971.688c30.318,21.736,43.358,5.116,55.969-10.956,7.4-9.431,14.391-18.358,24.446-18.393,11.631-.062,22.968,3.578,33.933,7.1q1.406.451,2.794.894c15.618,4.973,31.685,12.851,50.563,24.794,9.287,5.876,20.067,13.775,31.48,22.14q2.649,1.941,5.348,3.916c15.916,11.633,33.077,19.515,44.67,24.078,17.285,6.8,29.886,7.486,38.522,2.085,8.233-5.148,13.069-16.212,14.374-32.884a178.409,178.409,0,0,0,0-25.063c-1.126-17.587,4.906-38.653,16.135-56.351,12.853-20.207,29.775-31.64,46.431-31.362a31.708,31.708,0,0,0,17.081-4.1c11.6-6.824,17.061-20.9,22.338-34.516,1.849-4.768,3.759-9.7,5.884-14.122,5.962-12.53,23.477-11.307,37.55-10.324l1.506.1c7.031.481,14.3.979,20.34.467,21.083-1.786,36.3-7.728,46.531-18.165a48.713,48.713,0,0,0,5.7-7.029c5.425-8.143,8.514-18.1,11.5-27.724,1.224-3.946,2.49-8.026,3.9-11.931a111.351,111.351,0,0,1,9.025-19.133,112.079,112.079,0,0,1,31.322-33.649c25.165-18.1,55.051-25.06,82-19.087l-.323,1.455c-26.529-5.88-55.981.987-80.8,18.843a110.6,110.6,0,0,0-30.912,33.2,109.834,109.834,0,0,0-8.9,18.876c-1.4,3.872-2.66,7.936-3.879,11.866-3.018,9.728-6.139,19.787-11.685,28.11a50.149,50.149,0,0,1-5.874,7.245C873.984,31.93,858.457,38.017,837,39.834c-6.157.52-13.48.02-20.568-.465l-1.507-.1C798.2,38.1,783.936,38,778.825,48.745c-2.1,4.374-3.917,9.058-5.839,14.018-5.37,13.851-10.922,28.175-22.973,35.262a33.162,33.162,0,0,1-17.861,4.308c-16.118-.27-32.58,10.913-45.148,30.671-11.066,17.441-17.013,38.173-15.907,55.457a179.933,179.933,0,0,1-.005,25.274c-1.363,17.411-6.292,28.543-15.07,34.032-9.065,5.669-22.1,5.027-39.858-1.961-11.675-4.6-28.96-12.535-45-24.262q-2.7-1.972-5.349-3.917c-11.392-8.348-22.152-16.233-31.4-22.081-18.768-11.873-34.725-19.7-50.218-24.634q-1.39-.442-2.8-.9c-10.853-3.485-22.076-7.09-33.469-7.028-9.33.057-16.11,8.683-23.281,17.823-7.951,10.132-16.581,21.13-30,21.848-7.569.406-16.659-2.46-28.014-10.6q-.474-.34-.96-.68c-.358-.252-.72-.507-1.084-.768-1.812-1.3-3.424-1.66-4.929-1.1-5.906,2.217-9.518,17.658-13.011,32.593-2.094,8.954-4.073,17.411-6.566,23.358-8.455,20.121-23.611,47.657-47.8,64.575a75.989,75.989,0,0,1-33.945,13.425Q256.134,323.738,253.949,323.855Z" transform="translate(-224.902 100.462)" fill="#1c30e0"/>
          </g>
          <g id="Group_91" data-name="Group 91" transform="translate(42.065 23.327)" opacity="0.852">
            <path id="Path_1086" data-name="Path 1086" d="M290.766,347.185a50.491,50.491,0,0,1-26.153-5.318l.661-1.271c18.055,9.39,42.922,5.829,63.35-9.072,18.244-13.308,34.11-35.236,45.884-63.413,2.4-5.755,4.34-13.955,6.4-22.638,3.741-15.789,7.274-30.7,13.836-33.277,1.9-.746,3.938-.4,6.059,1.019.29.194.58.384.866.573.382.251.759.5,1.128.75,29.321,19.979,42.123,3.794,54.5-11.858,7.364-9.31,14.323-18.11,24.326-18.266,10.184-.165,20.237,2.831,29.959,5.729,2.306.688,4.485,1.337,6.661,1.943,16.4,4.567,32.919,12.156,50.5,23.2,10.034,6.3,21.822,15.093,34.3,24.4l2.331,1.738c11.879,8.856,26.511,16.423,44.731,23.132,17.011,6.264,29.486,6.661,38.136,1.211,8.428-5.309,13.29-16.026,14.864-32.761a180.355,180.355,0,0,0,.449-24.92c-.806-17.515,5.286-38.512,16.294-56.167,12.63-20.189,29.237-31.884,45.591-32.071a33.377,33.377,0,0,0,16.955-4.385c11.621-6.825,17.444-20.242,23.074-33.218,2.09-4.816,4.064-9.365,6.329-13.632,6.245-11.762,22.9-10.739,37.587-9.837l.344.02c7.4.435,15.056.886,21.409.241,20.843-2.114,35.895-8.279,46.014-18.849a49.8,49.8,0,0,0,5.621-7.066c5.306-8.086,8.389-17.9,11.371-27.393,1.266-4.03,2.575-8.2,4.037-12.179a107.852,107.852,0,0,1,9.143-19.006,108.872,108.872,0,0,1,31.725-32.853c25.267-17.416,55.141-23.974,81.959-17.991l-.312,1.4c-26.431-5.9-55.894.581-80.835,17.774a107.456,107.456,0,0,0-31.314,32.421,106.325,106.325,0,0,0-9.02,18.752c-1.451,3.949-2.755,8.1-4.016,12.114-3.012,9.585-6.125,19.5-11.54,27.75a51.321,51.321,0,0,1-5.783,7.27c-10.366,10.826-25.708,17.134-46.905,19.283-6.47.658-14.18.2-21.637-.236l-.345-.02c-17.239-1.059-30.852-1.062-36.236,9.078-2.239,4.217-4.2,8.741-6.281,13.53C801.066,96,795.15,109.636,783.126,116.7a34.743,34.743,0,0,1-17.664,4.583c-15.84.191-32.026,11.63-44.393,31.4-10.86,17.417-16.871,38.106-16.078,55.342a181.752,181.752,0,0,1-.453,25.121c-1.617,17.208-6.7,28.277-15.527,33.839-9.052,5.7-21.938,5.349-39.395-1.078-18.352-6.757-33.1-14.388-45.092-23.327l-2.331-1.738c-12.456-9.29-24.222-18.066-34.207-24.336-17.465-10.968-33.862-18.5-50.126-23.031-2.189-.609-4.373-1.261-6.686-1.95-9.618-2.867-19.563-5.831-29.527-5.67-9.338.166-16.079,8.686-23.226,17.722-12.192,15.413-26.009,32.886-56.435,12.154-.362-.246-.732-.49-1.107-.735q-.436-.286-.877-.581c-1.732-1.161-3.283-1.446-4.738-.876-5.864,2.3-9.474,17.537-12.965,32.273-2.071,8.74-4.027,17-6.469,22.859-8.281,19.818-23.046,47.011-46.362,64.018a75.353,75.353,0,0,1-32.686,13.881Q293.745,347.026,290.766,347.185Z" transform="translate(-264.613 78.465)" fill="#1c30e0"/>
          </g>
          <g id="Group_92" data-name="Group 92" transform="translate(52.583 29.147)" opacity="0.815">
            <path id="Path_1087" data-name="Path 1087" d="M327.588,370.555a47.6,47.6,0,0,1-23.262-4.341l.595-1.239c17.425,8.362,41.326,4.137,60.891-10.764,17.572-13.383,32.956-35.132,44.489-62.894,2.349-5.678,4.27-13.68,6.3-22.151,3.57-14.872,7.261-30.251,13.73-32.913a6.167,6.167,0,0,1,5.8.764c.245.152.49.3.732.447.412.25.819.5,1.214.751,28.314,18.223,40.876,2.473,53.025-12.756,7.332-9.191,14.271-17.857,24.22-18.143,9.209-.25,18.39,2.351,27.268,4.867,3.22.912,6.262,1.774,9.248,2.484,17.42,4.144,33.449,11.008,50.442,21.6,10.8,6.73,23.831,16.64,36.437,26.224,14.667,11.151,32.589,18,44.794,22.185,16.729,5.734,29.074,5.847,37.744.346,8.512-5.4,13.536-16.081,15.358-32.646a181.957,181.957,0,0,0,.894-24.778c-.483-17.449,5.667-38.378,16.454-55.984,12.3-19.993,28.43-31.908,44.322-32.758l.429-.02a35.238,35.238,0,0,0,16.827-4.669c11.593-6.8,17.758-19.507,23.72-31.8,2.275-4.689,4.424-9.119,6.866-13.264,6.48-11,23.027-10.12,37.624-9.349,8.479.421,15.457.685,21.658-.048,20.6-2.436,35.482-8.825,45.5-19.533a51,51,0,0,0,5.542-7.1c5.183-8.025,8.259-17.7,11.233-27.05,1.31-4.118,2.664-8.377,4.181-12.439a104.472,104.472,0,0,1,9.26-18.878,105.812,105.812,0,0,1,32.126-32.057c25.367-16.733,55.227-22.893,81.923-16.9l-.3,1.341c-26.332-5.914-55.807.175-80.867,16.7A104.457,104.457,0,0,0,982.289-4.562a103.106,103.106,0,0,0-9.137,18.628c-1.5,4.029-2.853,8.272-4.158,12.374-3,9.439-6.106,19.2-11.389,27.38a52.352,52.352,0,0,1-5.692,7.3c-10.247,10.955-25.4,17.483-46.34,19.959-6.307.746-13.343.48-21.89.056-14.9-.788-30.312-1.6-36.368,8.674-2.414,4.1-4.551,8.5-6.814,13.166-6.052,12.475-12.309,25.374-24.262,32.384a36.67,36.67,0,0,1-17.467,4.856c-15.591.637-31.471,12.346-43.636,32.124-10.653,17.387-16.728,38.033-16.252,55.227a183.416,183.416,0,0,1-.9,24.966c-1.871,17.007-7.1,28.016-15.988,33.657-9.044,5.74-21.777,5.672-38.927-.206-12.295-4.214-30.355-11.121-45.18-22.391-12.581-9.564-25.591-19.455-36.333-26.151C584.693,226.922,568.8,220.112,551.524,216c-3.014-.716-6.07-1.582-9.3-2.5-8.779-2.487-17.857-5.059-26.856-4.815-9.325.267-16.056,8.692-23.183,17.626-7.893,9.895-16.485,20.662-29.872,21.38-6.875.368-15.012-1.914-24.973-8.324-.385-.248-.781-.488-1.182-.731-.246-.15-.495-.3-.743-.454a4.811,4.811,0,0,0-4.553-.661c-5.819,2.394-9.427,17.426-12.916,31.962-2.047,8.526-3.979,16.579-6.371,22.357-11.626,27.987-27.161,49.931-44.925,63.462a74.953,74.953,0,0,1-31.427,14.335A59.493,59.493,0,0,1,327.588,370.555Z" transform="translate(-304.326 56.49)" fill="#1c30e0"/>
          </g>
          <g id="Group_93" data-name="Group 93" transform="translate(63.102 34.922)" opacity="0.778">
            <path id="Path_1088" data-name="Path 1088" d="M364.36,393.822a44.7,44.7,0,0,1-20.317-3.387l.527-1.208c16.8,7.327,39.733,2.438,58.434-12.455,16.9-13.458,31.8-35.027,43.093-62.376,2.3-5.6,4.2-13.4,6.208-21.662,3.563-14.647,7.247-29.794,13.621-32.555a6,6,0,0,1,5.544.513c.215.122.431.24.645.359.426.235.847.468,1.254.713,27.288,16.465,39.612,1.158,51.53-13.646,7.306-9.075,14.194-17.654,24.134-18.028,8.507-.326,17.06,2.013,25.332,4.274,3.878,1.061,7.542,2.062,11.08,2.757a146.734,146.734,0,0,1,50.381,20c10.553,6.53,23.165,16.171,36.241,26.308,13.489,10.456,30.246,16.6,44.858,21.24,16.44,5.215,28.656,5.047,37.347-.511,8.6-5.5,13.786-16.144,15.856-32.54a184.177,184.177,0,0,0,1.339-24.635c-.162-17.388,6.049-38.248,16.612-55.8,12.189-20.162,28.195-32.366,43.914-33.484a37.538,37.538,0,0,0,16.7-4.952c11.547-6.762,18.041-18.756,24.322-30.355,2.475-4.571,4.813-8.889,7.448-12.917,6.693-10.23,22.436-9.536,37.659-8.862,7.678.311,15.108.517,21.563-.357,20.353-2.753,35.067-9.366,44.982-20.217a52.348,52.348,0,0,0,5.464-7.14c5.06-7.959,8.125-17.484,11.089-26.7,1.355-4.21,2.756-8.564,4.329-12.709a101.257,101.257,0,0,1,9.377-18.75c7.817-12.11,18.76-22.627,32.526-31.259a119.012,119.012,0,0,1,39.725-16.051,100.184,100.184,0,0,1,42.164.247l-.291,1.285c-26.527-6-55.257-.444-80.9,15.635-13.6,8.529-24.408,18.911-32.12,30.857a99.964,99.964,0,0,0-9.253,18.5c-1.561,4.113-2.956,8.45-4.306,12.645-2.99,9.291-6.082,18.9-11.233,27a53.631,53.631,0,0,1-5.6,7.322C975.5,92.015,960.531,98.764,939.86,101.56c-6.563.888-14.055.68-21.8.367-14.858-.656-30.219-1.335-36.5,8.268-2.6,3.982-4.93,8.276-7.392,12.823-6.367,11.758-12.95,23.916-24.815,30.864a38.821,38.821,0,0,1-17.27,5.13c-15.286,1.087-30.915,13.061-42.879,32.851-10.442,17.354-16.582,37.956-16.423,55.11a185.656,185.656,0,0,1-1.349,24.813c-2.122,16.808-7.5,27.761-16.454,33.485-9.041,5.783-21.62,6-38.455.657-14.723-4.671-31.614-10.872-45.266-21.455-13.048-10.115-25.629-19.732-36.128-26.229a145.453,145.453,0,0,0-49.942-19.829c-3.584-.7-7.27-1.712-11.173-2.779-8.176-2.236-16.63-4.547-24.934-4.229l-.245.012c-9.2.492-15.862,8.768-22.913,17.527-11.7,14.535-24.963,31.008-53.236,13.948-.392-.237-.8-.461-1.21-.688-.218-.12-.437-.241-.656-.365a4.684,4.684,0,0,0-4.372-.451c-5.773,2.5-9.378,17.323-12.865,31.657-2.021,8.311-3.93,16.16-6.27,21.853-11.377,27.557-26.416,49.308-43.49,62.9C391.544,387.583,377.445,393.122,364.36,393.822Z" transform="translate(-344.043 34.687)" fill="#1c30e0"/>
          </g>
          <g id="Group_94" data-name="Group 94" transform="translate(73.622 40.713)" opacity="0.741">
            <path id="Path_1089" data-name="Path 1089" d="M401.184,417.26a41.822,41.822,0,0,1-17.42-2.558l.456-1.174c16.168,6.281,38.141.728,55.979-14.148,16.225-13.529,30.643-34.919,41.7-61.857,2.253-5.52,4.127-13.122,6.111-21.171,3.555-14.421,7.231-29.332,13.508-32.205a5.847,5.847,0,0,1,5.294.268c.2.1.391.2.586.293.418.207.851.422,1.265.654,26.244,14.71,38.327-.153,50.013-14.527,7.271-8.944,14.14-17.393,24-17.92l.072,0c7.976-.395,16.054,1.758,23.867,3.84a121.619,121.619,0,0,0,12.441,2.873,129.416,129.416,0,0,1,50.319,18.4c9.917,6.092,21.144,14.615,36.044,26.391,13.316,10.524,30.17,15.995,44.923,20.3,16.144,4.706,28.229,4.263,36.944-1.357,8.692-5.6,14.043-16.216,16.36-32.444a186.5,186.5,0,0,0,1.784-24.492c.163-17.333,6.432-38.126,16.771-55.623,7.035-11.843,21.985-32.031,43.076-34.19a40.217,40.217,0,0,0,16.568-5.237c11.479-6.712,18.285-17.984,24.867-28.884,2.694-4.462,5.24-8.677,8.086-12.6,6.841-9.414,22-8.905,36.665-8.413l1.029.034c7.293.242,14.941.329,21.472-.666,20.1-3.063,34.645-9.9,44.464-20.9a53.664,53.664,0,0,0,5.384-7.177c4.936-7.89,7.989-17.266,10.941-26.333,1.4-4.305,2.851-8.757,4.483-12.988a98.193,98.193,0,0,1,9.494-18.621c7.947-12.005,18.717-21.969,32.927-30.462,26.049-15.569,55.119-20.795,81.855-14.711l-.279,1.228c-26.42-6.011-55.161-.839-80.93,14.564-14.044,8.394-24.683,18.232-32.523,30.076a96.886,96.886,0,0,0-9.37,18.381c-1.619,4.2-3.064,8.634-4.46,12.924-2.976,9.14-6.053,18.591-11.072,26.612a54.9,54.9,0,0,1-5.512,7.347c-10.021,11.229-24.81,18.2-45.214,21.308-6.631,1.01-14.35.923-21.7.679l-1.03-.035c-14.994-.5-29.157-.979-35.6,7.895-2.816,3.875-5.347,8.067-8.028,12.506-6.664,11.036-13.554,22.447-25.309,29.321a41.449,41.449,0,0,1-17.076,5.4c-20.542,2.1-35.207,21.94-42.12,33.579-10.231,17.313-16.435,37.871-16.6,54.993a187.77,187.77,0,0,1-1.8,24.658c-2.372,16.611-7.908,27.512-16.925,33.326-9.04,5.828-21.463,6.322-37.98,1.507-14.867-4.335-31.858-9.852-45.351-20.517-14.865-11.748-26.059-20.247-35.923-26.306a128.223,128.223,0,0,0-49.851-18.231,122.4,122.4,0,0,1-12.573-2.9c-7.719-2.057-15.7-4.184-23.48-3.8l-.065,0c-9.3.5-16,8.736-23.088,17.457-7.873,9.684-16.471,20.256-29.9,20.977-6.108.327-13.213-1.384-21.709-6.146-.385-.216-.785-.414-1.208-.623-.2-.1-.4-.2-.6-.3a4.59,4.59,0,0,0-4.2-.244c-5.724,2.62-9.326,17.231-12.81,31.361-2,8.094-3.88,15.74-6.168,21.345-11.13,27.128-25.673,48.688-42.055,62.348C428.647,410.653,414.308,416.558,401.184,417.26Z" transform="translate(-383.764 12.822)" fill="#1c30e0"/>
          </g>
          <g id="Group_95" data-name="Group 95" transform="translate(84.144 46.518)" opacity="0.704">
            <path id="Path_1090" data-name="Path 1090" d="M438.032,440.821a39.026,39.026,0,0,1-14.541-1.816l.383-1.139c15.538,5.223,36.549-.994,53.526-15.841,15.55-13.6,29.485-34.811,40.3-61.339,2.2-5.438,4.054-12.839,6.011-20.675,3.546-14.19,7.212-28.863,13.39-31.862a5.735,5.735,0,0,1,5.051.026c.18.081.359.159.538.237.418.182.852.37,1.266.583,25.175,12.961,37.018-1.454,48.471-15.393,7.28-8.861,14.156-17.23,24.03-17.833,7.562-.461,15.269,1.556,22.725,3.506a97.911,97.911,0,0,0,13.48,2.89c19.441,2.151,34.471,7.176,50.255,16.8,10.807,6.59,23.616,16.619,35.847,26.474,13.7,11.035,31.783,15.843,44.99,19.353,15.842,4.21,27.791,3.494,36.535-2.19,8.788-5.712,14.306-16.3,16.87-32.361a188.912,188.912,0,0,0,2.229-24.349c.489-17.284,6.818-38.01,16.931-55.444,11.927-20.441,26.927-32.833,42.24-34.895a43.427,43.427,0,0,0,16.437-5.521c11.382-6.646,18.478-17.187,25.34-27.381,2.938-4.365,5.714-8.489,8.8-12.305,7-8.669,21.022-8.316,35.86-7.942l1.87.046c6.772.163,14.61.174,21.379-.975,19.848-3.367,34.222-10.429,43.946-21.587a55.184,55.184,0,0,0,5.306-7.214c4.811-7.815,7.848-17.038,10.785-25.958,1.451-4.4,2.95-8.959,4.643-13.278a95.3,95.3,0,0,1,9.61-18.493c7.969-11.74,18.871-21.443,33.327-29.665,26.157-14.875,55.216-19.712,81.823-13.619l-.269,1.171c-26.314-6.026-55.066-1.234-80.96,13.493-14.293,8.129-25.063,17.711-32.927,29.294a94.114,94.114,0,0,0-9.487,18.258c-1.68,4.287-3.175,8.826-4.62,13.215-2.959,8.986-6.019,18.277-10.9,26.213a56.394,56.394,0,0,1-5.422,7.372c-9.913,11.376-24.518,18.567-44.65,21.982-6.872,1.166-14.779,1.155-21.609.991l-1.871-.046c-14.535-.365-28.262-.711-34.9,7.5-3.051,3.776-5.813,7.878-8.737,12.221-6.937,10.306-14.111,20.963-25.73,27.748a44.607,44.607,0,0,1-16.882,5.674c-20.155,2.714-34.566,22.66-41.362,34.308-10.016,17.267-16.285,37.78-16.768,54.874a190.336,190.336,0,0,1-2.244,24.5c-2.62,16.418-8.312,27.271-17.4,33.179-9.044,5.879-21.31,6.645-37.5,2.343-13.31-3.538-31.54-8.383-45.435-19.578-12.2-9.83-24.971-19.829-35.719-26.384-19.643-11.977-36.178-15.129-49.762-16.632a98.658,98.658,0,0,1-13.652-2.922c-7.281-1.9-14.807-3.873-22.1-3.483l-.25.014c-9.351.571-16.066,8.744-23.175,17.4-11.208,13.642-23.911,29.1-49.949,15.7-.379-.2-.775-.368-1.195-.55-.183-.08-.367-.16-.551-.242a4.531,4.531,0,0,0-4.034-.042c-5.673,2.755-9.27,17.151-12.749,31.073-1.968,7.877-3.828,15.318-6.064,20.836-10.884,26.7-24.93,48.069-40.621,61.791C465.761,433.8,451.173,440.118,438.032,440.821Z" transform="translate(-423.491 -9.096)" fill="#1c30e0"/>
          </g>
          <g id="Group_96" data-name="Group 96" transform="translate(94.667 52.315)" opacity="0.667">
            <path id="Path_1091" data-name="Path 1091" d="M474.912,464.458a36.3,36.3,0,0,1-11.689-1.171l.307-1.1c14.914,4.154,34.962-2.728,51.075-17.535,14.874-13.669,28.326-34.7,38.9-60.82,2.155-5.356,3.978-12.554,5.908-20.175,3.535-13.953,7.19-28.382,13.264-31.526a5.66,5.66,0,0,1,4.817-.211c.163.063.327.123.491.184.418.155.852.315,1.266.509,24.079,11.216,35.679-2.744,46.9-16.244,7.283-8.764,14.162-17.042,24.025-17.759,7.231-.521,14.638,1.389,21.807,3.239,5.078,1.31,9.875,2.548,14.295,2.842,14.633.973,30.842,3.487,50.19,15.2,11.109,6.724,24.255,17.2,35.649,26.557,13.072,10.736,30.7,14.965,44.859,18.362l.2.048c15.529,3.726,27.343,2.742,36.117-3.009,8.889-5.826,14.576-16.389,17.386-32.292a189.111,189.111,0,0,0,2.675-24.206c.829-17.5,7.057-37.644,17.09-55.266,11.708-20.437,26.412-33.079,41.4-35.6a47.342,47.342,0,0,0,16.3-5.806c11.247-6.558,18.6-16.357,25.716-25.833,3.215-4.284,6.253-8.33,9.607-12.056,7.147-7.938,20.688-7.707,35.024-7.461q1.37.023,2.742.045c6.228.092,14.274.028,21.287-1.283,19.591-3.666,33.8-10.951,43.427-22.273a56.719,56.719,0,0,0,5.226-7.251c4.684-7.734,7.7-16.8,10.622-25.568,1.5-4.508,3.054-9.171,4.811-13.583a92.609,92.609,0,0,1,9.727-18.364c7.993-11.484,19.025-20.926,33.728-28.868,26.258-14.183,55.3-18.632,81.789-12.528l-.257,1.115c-26.212-6.042-54.975-1.631-80.989,12.419-14.541,7.854-25.444,17.181-33.332,28.514a91.437,91.437,0,0,0-9.6,18.135c-1.745,4.381-3.292,9.027-4.788,13.52-2.939,8.827-5.978,17.955-10.729,25.8a57.882,57.882,0,0,1-5.333,7.4c-9.808,11.53-24.23,18.941-44.088,22.657-7.113,1.33-15.234,1.4-21.515,1.3q-1.373-.02-2.745-.045c-14.068-.24-27.355-.468-34.154,7.083-3.321,3.688-6.343,7.715-9.543,11.977-7.181,9.567-14.607,19.46-26.054,26.135a48.477,48.477,0,0,1-16.691,5.947c-14.648,2.461-29.067,14.905-40.6,35.038-9.946,17.469-16.121,37.426-16.941,54.752a190.246,190.246,0,0,1-2.691,24.351c-2.868,16.23-8.719,27.041-17.886,33.049-9.052,5.934-21.157,6.968-37.011,3.165l-.2-.048c-14.276-3.425-32.042-7.687-45.318-18.591-11.363-9.333-24.468-19.775-35.516-26.462-19.139-11.585-35.185-14.073-49.674-15.036-4.526-.3-9.373-1.551-14.5-2.875-7.081-1.827-14.39-3.72-21.439-3.2-9.378.681-16.106,8.777-23.229,17.349-7.9,9.513-16.573,19.941-30.124,20.668-5.237.28-11.2-.888-18.136-4.118-.372-.174-.765-.319-1.181-.473-.168-.062-.336-.125-.5-.189a4.5,4.5,0,0,0-3.88.159c-5.618,2.907-9.209,17.082-12.681,30.791-1.94,7.66-3.773,14.894-5.957,20.322-10.638,26.278-24.189,47.452-39.187,61.235C502.89,456.968,488.036,463.755,474.912,464.458Z" transform="translate(-463.223 -30.984)" fill="#1c30e0"/>
          </g>
          <g id="Group_97" data-name="Group 97" transform="translate(105.192 58.104)" opacity="0.63">
            <path id="Path_1092" data-name="Path 1092" d="M511.833,488.186a33.673,33.673,0,0,1-8.872-.641l.228-1.062c14.29,3.068,33.378-4.48,48.626-19.231,14.4-13.929,27.016-34.217,37.5-60.3,2.1-5.271,3.9-12.266,5.8-19.671,3.521-13.711,7.162-27.888,13.13-31.2a5.628,5.628,0,0,1,4.594-.445c.152.048.3.094.457.14.414.125.842.255,1.254.425,22.947,9.486,34.3-4.015,45.283-17.071,7.3-8.679,14.195-16.877,24.061-17.709,6.942-.594,14.119,1.246,21.056,3.018,5.334,1.362,10.372,2.649,14.945,2.747,17.112.364,32.185,2.816,50.123,13.6,11.4,6.85,24.935,17.835,35.451,26.639,12.565,10.52,29.89,14.217,43.811,17.187l1.316.281c15.212,3.254,26.886,2.007,35.69-3.814,8.995-5.946,14.854-16.491,17.911-32.235a191.914,191.914,0,0,0,3.121-24.064c1.165-17.469,7.452-37.549,17.25-55.089,11.491-20.437,25.9-33.329,40.571-36.3a52.192,52.192,0,0,0,16.17-6.092c11.061-6.441,18.635-15.484,25.959-24.229,3.537-4.223,6.878-8.212,10.549-11.862,7.264-7.225,20.324-7.1,34.149-6.969q1.823.018,3.653.03c8.921.047,15.656-.459,21.2-1.593,19.061-3.9,33.5-11.626,42.907-22.959a58.272,58.272,0,0,0,5.147-7.287c4.557-7.649,7.553-16.554,10.452-25.165,1.553-4.617,3.161-9.391,4.985-13.9a89.928,89.928,0,0,1,9.844-18.235c8.019-11.238,19.182-20.42,34.126-28.07,26.356-13.491,55.391-17.554,81.757-11.437l-.246,1.058c-26.116-6.058-54.887-2.029-81.016,11.346-14.786,7.569-25.822,16.64-33.738,27.733a88.858,88.858,0,0,0-9.721,18.013c-1.813,4.478-3.414,9.236-4.963,13.838-2.916,8.665-5.932,17.626-10.549,25.375a59.437,59.437,0,0,1-5.243,7.424c-9.572,11.528-24.216,19.377-43.526,23.329-5.615,1.149-12.421,1.662-21.419,1.615q-1.831-.01-3.658-.03c-13.593-.129-26.43-.251-33.373,6.653-3.636,3.615-6.961,7.586-10.482,11.789-7.384,8.817-15.02,17.934-26.245,24.47a53.255,53.255,0,0,1-16.5,6.218c-14.357,2.91-28.506,15.612-39.839,35.769-9.722,17.4-15.959,37.316-17.114,54.631a192.855,192.855,0,0,1-3.138,24.2c-3.116,16.046-9.127,26.819-18.379,32.935-9.061,5.99-21,7.288-36.516,3.97l-1.315-.281c-14.038-3-31.51-6.724-44.282-17.417-10.486-8.779-23.977-19.73-35.313-26.541-17.733-10.656-32.648-13.079-49.587-13.44-4.7-.1-9.8-1.4-15.191-2.781-6.85-1.75-13.936-3.566-20.7-2.988-9.417.795-16.171,8.825-23.321,17.326-5.495,6.532-11.175,13.286-18.463,17.223-8.3,4.481-17.476,4.531-28.065.153-.363-.15-.747-.266-1.154-.389-.156-.047-.313-.095-.471-.144a4.52,4.52,0,0,0-3.739.36c-5.559,3.08-9.141,17.027-12.6,30.515-1.911,7.44-3.715,14.467-5.846,19.8C579.781,433.581,567.08,454,552.57,468.032,540.036,480.157,524.9,487.487,511.833,488.186Z" transform="translate(-502.961 -52.843)" fill="#1c30e0"/>
          </g>
          <g id="Group_98" data-name="Group 98" transform="translate(115.718 63.885)" opacity="0.593">
            <path id="Path_1093" data-name="Path 1093" d="M548.8,512.024a31.214,31.214,0,0,1-6.1-.246l.146-1.018c13.67,1.964,31.8-6.252,46.18-20.93,13.708-13.991,25.855-34.1,36.1-59.782,2.054-5.185,3.821-11.973,5.693-19.161,4.309-16.549,8.766-33.661,17.37-31.547.145.036.289.069.433.1a10.84,10.84,0,0,1,1.231.335c21.771,7.777,32.879-5.26,43.62-17.867,7.335-8.609,14.262-16.739,24.147-17.692,6.713-.651,13.684,1.121,20.426,2.832,5.548,1.407,10.789,2.736,15.475,2.62,17.753-.44,32.319,1.412,50.055,11.991,9.045,5.395,19.917,13.636,35.252,26.721,12.154,10.371,28.564,13.428,43.041,16.126l2.158.4c14.231,2.674,25.373,1.416,34.061-3.845,9.766-5.914,16.19-16.693,19.637-32.954a195,195,0,0,0,3.567-23.92c1.5-17.45,7.85-37.465,17.409-54.915,11.277-20.44,25.389-33.582,39.738-37a58.322,58.322,0,0,0,16.034-6.378c10.807-6.284,18.541-14.552,26.021-22.548,3.92-4.191,7.623-8.149,11.671-11.741,7.356-6.528,19.925-6.5,33.233-6.466,1.531,0,3.07.007,4.608,0a99.425,99.425,0,0,0,21.105-1.9c18.8-4.182,33.063-12.138,42.388-23.646a60.187,60.187,0,0,0,5.067-7.323c4.427-7.558,7.4-16.3,10.274-24.749,1.609-4.73,3.272-9.621,5.167-14.229a87.48,87.48,0,0,1,9.959-18.105c8.047-11,19.34-19.922,34.525-27.272,26.45-12.8,55.474-16.477,81.726-10.348l-.234,1c-26.023-6.077-54.806-2.428-81.044,10.272-15.239,7.376-26.088,15.94-34.142,26.953a86.423,86.423,0,0,0-9.839,17.891c-1.883,4.578-3.541,9.453-5.144,14.168-2.891,8.5-5.88,17.29-10.361,24.938a61.136,61.136,0,0,1-5.155,7.449c-9.474,11.693-23.929,19.769-42.964,24a100.42,100.42,0,0,1-21.323,1.927c-1.54.007-3.081,0-4.615,0-13.106-.032-25.485-.062-32.548,6.206-4.012,3.56-7.7,7.5-11.6,11.675-7.53,8.05-15.317,16.374-26.255,22.735a59.347,59.347,0,0,1-16.312,6.489c-14.065,3.355-27.942,16.317-39.076,36.5-9.492,17.328-15.793,37.2-17.285,54.508a195.989,195.989,0,0,1-3.585,24.045c-5.286,24.936-17.94,37.772-38.489,38.872a69.161,69.161,0,0,1-16.405-1.275l-2.156-.4c-14.6-2.721-31.157-5.805-43.521-16.354-15.29-13.046-26.118-21.256-35.111-26.62-17.524-10.452-31.934-12.281-49.5-11.845-4.828.12-10.135-1.226-15.754-2.652-6.657-1.688-13.541-3.432-20.075-2.8-9.471.913-16.267,8.89-23.463,17.336-5.371,6.3-10.925,12.823-17.951,16.79-7.992,4.514-16.758,4.965-26.8,1.378a10.1,10.1,0,0,0-1.115-.3c-.149-.034-.3-.069-.449-.105-7.616-1.873-11.945,14.741-16.129,30.808-1.88,7.218-3.655,14.037-5.732,19.281-10.3,25.806-22.519,46.034-36.323,60.122C577.2,503.371,561.772,511.33,548.8,512.024Z" transform="translate(-542.704 -74.669)" fill="#1c30e0"/>
          </g>
          <g id="Group_99" data-name="Group 99" transform="translate(126.244 69.656)" opacity="0.556">
            <path id="Path_1094" data-name="Path 1094" d="M585.834,535.991a28.739,28.739,0,0,1-3.384-.012l.062-.968c13.051.831,30.221-8.047,43.736-22.632,13.016-14.047,24.692-33.985,34.7-59.263a181.625,181.625,0,0,0,5.579-18.643c4.267-16.16,8.674-32.868,17.02-31.459.136.023.272.044.408.065a8.844,8.844,0,0,1,1.209.242c20.547,6.1,31.4-6.466,41.9-18.621,7.391-8.557,14.372-16.641,24.294-17.718,6.515-.7,13.315,1.01,19.895,2.671,5.73,1.446,11.142,2.826,15.909,2.469C801.8,371.07,817.714,371,837.144,382.5c9.043,5.354,20.18,13.87,35.052,26.8,11.81,10.271,28.1,12.858,42.469,15.142q1.42.225,2.8.448c29.294,4.733,46.889-7.548,53.794-37.549a198.084,198.084,0,0,0,4.012-23.776c1.85-17.445,8.253-37.4,17.569-54.742,7.826-14.466,20.929-32.75,38.907-37.706a66.311,66.311,0,0,0,15.9-6.663c10.451-6.069,18.261-13.535,25.814-20.755,4.394-4.2,8.544-8.168,13.061-11.729,7.419-5.85,19.488-5.9,32.265-5.952,1.864-.008,3.74-.015,5.615-.042a96.721,96.721,0,0,0,21.014-2.211c18.539-4.455,32.626-12.642,41.868-24.333a61.927,61.927,0,0,0,4.986-7.359c4.3-7.46,7.241-16.029,10.088-24.316,1.665-4.849,3.388-9.863,5.357-14.575a85.121,85.121,0,0,1,10.075-17.975c8.191-10.924,19.287-19.337,34.923-26.474,26.539-12.114,55.553-15.4,81.7-9.259l-.222.945c-25.936-6.094-54.727-2.828-81.071,9.2-15.482,7.067-26.46,15.384-34.549,26.172a84.087,84.087,0,0,0-9.957,17.769c-1.957,4.683-3.674,9.681-5.335,14.515-2.861,8.33-5.82,16.944-10.165,24.486a62.935,62.935,0,0,1-5.065,7.476c-9.38,11.865-23.647,20.167-42.4,24.674a97.6,97.6,0,0,1-21.227,2.238c-1.878.026-3.757.034-5.624.042-12.606.052-24.512.1-31.668,5.744-4.48,3.532-8.614,7.484-12.991,11.669-7.594,7.26-15.446,14.766-26,20.893a67.26,67.26,0,0,1-16.125,6.76c-17.648,4.866-30.575,22.932-38.311,37.231-9.257,17.237-15.621,37.059-17.458,54.383a199,199,0,0,1-4.032,23.892c-5.788,25.145-18.95,38.084-40.05,39.215a69.835,69.835,0,0,1-14.844-.926q-1.381-.223-2.8-.447c-14.5-2.3-30.933-4.915-42.953-15.368-14.826-12.892-25.919-21.376-34.909-26.7-19.2-11.37-34.333-11.334-49.42-10.252-4.927.352-10.409-1.03-16.217-2.5-6.5-1.639-13.213-3.336-19.552-2.646-9.543,1.036-16.4,8.979-23.665,17.388-8.434,9.765-17.1,19.792-30.744,20.523a35.814,35.814,0,0,1-12.163-1.606,8.047,8.047,0,0,0-1.078-.213c-.141-.022-.283-.043-.424-.067-7.467-1.264-11.764,15.01-15.92,30.75a182.326,182.326,0,0,1-5.615,18.752c-10.054,25.39-21.794,45.431-34.892,59.565C614.387,526.605,598.644,535.305,585.834,535.991Z" transform="translate(-582.45 -96.458)" fill="#1c30e0"/>
          </g>
          <g id="Group_100" data-name="Group 100" transform="translate(136.749 75.415)" opacity="0.519">
            <path id="Path_1095" data-name="Path 1095" d="M622.874,560.117q-.372.02-.74.029l-.024-.912c12.435-.309,28.651-9.873,41.294-24.338,12.321-14.1,23.525-33.86,33.3-58.743a185.932,185.932,0,0,0,5.491-18.319c4.256-16.006,8.659-32.548,16.683-31.169a5.781,5.781,0,0,0,.635.062,5.41,5.41,0,0,1,.9.108c19.263,4.47,29.854-7.622,40.1-19.317,7.474-8.534,14.534-16.6,24.518-17.8,6.337-.768,13,.908,19.438,2.528,5.886,1.481,11.444,2.877,16.27,2.3,15.3-1.841,30.634-2.552,49.912,8.778,9.147,5.376,20.221,13.918,34.852,26.883,11.516,10.206,27.736,12.334,42.047,14.213q1.675.22,3.3.437c28.879,3.908,46.505-8.621,53.887-38.3a201.354,201.354,0,0,0,4.459-23.632c2.2-17.456,8.662-37.346,17.728-54.57,7.677-14.475,20.516-32.888,38.079-38.407A77.125,77.125,0,0,0,1080.751,283c9.945-5.766,17.7-12.39,25.2-18.795,5.006-4.275,9.734-8.312,14.856-11.882,7.449-5.19,19-5.306,31.238-5.428,2.189-.022,4.452-.044,6.683-.1a92.878,92.878,0,0,0,20.924-2.52c18.275-4.721,32.186-13.139,41.348-25.02a63.933,63.933,0,0,0,4.906-7.4c4.167-7.357,7.078-15.751,9.894-23.869,1.724-4.972,3.508-10.114,5.554-14.934a81.694,81.694,0,0,1,10.191-17.845c8.225-10.7,19.448-18.862,35.321-25.676,26.619-11.428,55.622-14.329,81.667-8.171l-.21.888c-25.853-6.114-54.654-3.23-81.1,8.121-15.723,6.75-26.831,14.818-34.956,25.393a80.781,80.781,0,0,0-10.075,17.647c-2.034,4.791-3.812,9.918-5.532,14.875-2.829,8.157-5.755,16.591-9.962,24.021a64.84,64.84,0,0,1-4.977,7.5c-9.288,12.046-23.366,20.574-41.842,25.347a93.709,93.709,0,0,1-21.13,2.549c-2.237.054-4.5.076-6.7.1-12.088.121-23.508.234-30.725,5.264-5.086,3.544-9.8,7.568-14.785,11.827-7.532,6.432-15.319,13.082-25.336,18.891a78.063,78.063,0,0,1-15.94,7.031c-17.268,5.427-29.948,23.64-37.545,37.963-9.016,17.13-15.442,36.907-17.63,54.258a202.177,202.177,0,0,1-4.478,23.739c-3.9,15.693-10.843,26.856-20.624,33.177-8.863,5.728-20.394,7.681-34.272,5.8q-1.62-.22-3.3-.437c-14.44-1.9-30.808-4.043-42.533-14.434-14.585-12.926-25.614-21.435-34.709-26.78-19.033-11.186-34.2-10.478-49.34-8.659-4.993.6-10.632-.819-16.6-2.32-6.359-1.6-12.934-3.255-19.105-2.507-9.637,1.166-16.585,9.1-23.941,17.5-10.419,11.9-21.192,24.2-40.989,19.6a4.628,4.628,0,0,0-.748-.086,6.964,6.964,0,0,1-.734-.074c-7.2-1.247-11.495,14.9-15.645,30.5a186.439,186.439,0,0,1-5.523,18.418c-9.813,24.981-21.072,44.835-33.462,59.011C651.537,549.861,635.455,559.444,622.874,560.117Z" transform="translate(-622.111 -118.204)" fill="#1c30e0"/>
          </g>
          <g id="Group_101" data-name="Group 101" transform="translate(147.192 81.084)" opacity="0.481">
            <path id="Path_1096" data-name="Path 1096" d="M661.649,584.058l-.108-.848c11.836-1.512,27.086-11.737,38.852-26.049,11.622-14.137,22.354-33.725,31.9-58.221,1.9-4.91,3.568-11.065,5.337-17.582,4.179-15.39,8.518-31.3,16.336-31.3a3.731,3.731,0,0,0,.419-.033,2.073,2.073,0,0,1,1.228.116c16.414,8.4,27.264-4.918,37.757-17.8,7.548-9.263,15.352-18.84,25.157-20.15,6.186-.827,12.72.815,19.039,2.4,6.022,1.512,11.71,2.94,16.574,2.115,15.917-2.7,30.654-4.019,49.837,7.171,9.236,5.388,20.246,13.956,34.651,26.964,9.972,9.005,24.281,10.868,36.905,12.511,2.985.389,5.806.756,8.54,1.2,27.263,4.475,45.92-9.027,53.957-39.048a204.646,204.646,0,0,0,4.905-23.489c2.56-17.493,9.081-37.321,17.889-54.4,7.53-14.488,20.1-33.032,37.25-39.109a92.447,92.447,0,0,0,15.614-7.236c9.19-5.322,16.677-11.032,23.917-16.555a206.584,206.584,0,0,1,17.32-12.311c7.442-4.552,18.469-4.717,30.139-4.893,2.562-.038,5.21-.078,7.824-.166a90.71,90.71,0,0,0,20.835-2.83c18.008-4.981,31.744-13.63,40.826-25.708a66.2,66.2,0,0,0,4.825-7.431c4.033-7.245,6.909-15.459,9.689-23.4,1.786-5.1,3.633-10.379,5.761-15.312a79.527,79.527,0,0,1,10.306-17.715c8.261-10.491,19.61-18.4,35.717-24.877,27.084-10.9,55.314-13.348,81.639-7.083l-.2.832c-26.151-6.224-54.2-3.788-81.121,7.045-15.963,6.423-27.2,14.244-35.364,24.612a78.7,78.7,0,0,0-10.194,17.526c-2.115,4.905-3.958,10.167-5.739,15.256-2.793,7.977-5.681,16.226-9.75,23.536a67.063,67.063,0,0,1-4.889,7.528c-9.2,12.232-23.088,20.986-41.282,26.018a91.646,91.646,0,0,1-21.034,2.86c-2.621.088-5.274.128-7.84.167-11.552.174-22.464.337-29.706,4.768a206.032,206.032,0,0,0-17.248,12.261c-7.261,5.539-14.77,11.266-24.007,16.615a93.263,93.263,0,0,1-15.758,7.3c-16.884,5.984-29.319,24.346-36.777,38.7-8.766,17-15.254,36.727-17.8,54.13a205.5,205.5,0,0,1-4.925,23.586c-4.168,15.568-11.214,26.835-20.943,33.487-9.2,6.292-20.635,8.373-33.978,6.183-2.721-.447-5.534-.813-8.513-1.2-12.748-1.66-27.2-3.54-37.368-12.725-14.36-12.968-25.325-21.5-34.508-26.86-18.935-11.046-33.513-9.737-49.263-7.067-5.042.853-10.815-.6-16.925-2.129-6.242-1.567-12.695-3.187-18.718-2.383-9.469,1.264-17.165,10.709-24.607,19.842-8.108,9.95-16.427,20.157-27.38,20.744a22.229,22.229,0,0,1-11.429-2.728,1.442,1.442,0,0,0-.742-.028,4.673,4.673,0,0,1-.516.038c-7.182,0-11.416,15.589-15.511,30.668-1.776,6.539-3.453,12.716-5.366,17.668-9.576,24.582-20.354,44.249-32.033,58.455C689.157,572.175,673.69,582.52,661.649,584.058Z" transform="translate(-661.541 -139.608)" fill="#1c30e0"/>
          </g>
          <g id="Group_102" data-name="Group 102" transform="translate(157.636 86.817)" opacity="0.444">
            <path id="Path_1097" data-name="Path 1097" d="M701.165,608.143l-.19-.774c11.412-2.794,25.363-13.433,36.409-27.765,10.918-14.166,21.178-33.579,30.493-57.7,1.841-4.81,3.477-10.747,5.209-17.032,4.135-15.008,8.411-30.526,16.006-31.234a3.342,3.342,0,0,0,.4-.072,1.843,1.843,0,0,1,1.2.016c15.419,7.083,25.469-5.276,36.109-18.361,7.565-9.3,15.389-18.925,25.223-20.364,6.051-.884,12.475.727,18.69,2.286,6.141,1.54,11.941,3,16.832,1.92,15.921-3.5,30.654-5.5,49.758,5.564,9.311,5.392,20.258,13.985,34.449,27.044,9.835,9.05,24.229,10.514,36.928,11.805,3.005.306,5.844.595,8.595.971,26.825,3.68,45.518-10.082,54.051-39.794a208.011,208.011,0,0,0,5.351-23.345,195.17,195.17,0,0,1,18.048-54.231c10.588-20.8,23.183-34.565,36.425-39.809a115.636,115.636,0,0,0,15.471-7.522c8-4.627,14.831-9.293,21.437-13.8a225.169,225.169,0,0,1,20.979-13.247c7.4-3.937,17.872-4.137,28.962-4.349,2.961-.056,6.024-.115,9.047-.248a87.516,87.516,0,0,0,20.745-3.14c17.74-5.232,31.3-14.113,40.3-26.4a68.357,68.357,0,0,0,4.745-7.467c3.9-7.126,6.734-15.154,9.476-22.917,1.851-5.24,3.764-10.657,5.978-15.709a77.481,77.481,0,0,1,10.421-17.584c10.9-13.514,25.833-20.215,36.113-24.079,27.154-10.207,55.374-12.28,81.611-6l-.186.775c-26.081-6.247-54.141-4.183-81.145,5.967-10.193,3.831-24.991,10.47-35.772,23.833a76.682,76.682,0,0,0-10.312,17.4c-2.2,5.024-4.111,10.427-5.956,15.654-2.752,7.793-5.6,15.851-9.528,23.034a69.146,69.146,0,0,1-4.8,7.555c-9.11,12.427-22.811,21.407-40.723,26.69a88.486,88.486,0,0,1-20.936,3.171c-3.033.133-6.1.192-9.066.249-10.993.21-21.377.409-28.6,4.256a224.485,224.485,0,0,0-20.9,13.2c-6.617,4.52-13.46,9.195-21.487,13.837a116.546,116.546,0,0,1-15.576,7.573c-13.058,5.172-25.509,18.806-36.007,39.428a194.333,194.333,0,0,0-17.973,54,208.549,208.549,0,0,1-5.371,23.434c-4.385,15.271-11.511,26.466-21.178,33.275-9.239,6.507-20.592,8.892-33.747,7.09-2.737-.375-5.569-.664-8.567-.969-12.823-1.3-27.357-2.783-37.386-12.012-14.148-13.018-25.049-21.579-34.309-26.94-18.888-10.937-32.871-9.063-49.187-5.475-5.073,1.114-10.963-.362-17.2-1.926-6.14-1.54-12.49-3.133-18.38-2.271-9.527,1.394-17.251,10.893-24.72,20.078-8.06,9.913-16.337,20.089-27.135,20.667a20.863,20.863,0,0,1-9.926-2.084,1.251,1.251,0,0,0-.7.038,3.962,3.962,0,0,1-.5.087c-7.046.657-11.247,15.906-15.311,30.652-1.737,6.3-3.378,12.259-5.234,17.107-9.343,24.194-19.641,43.675-30.606,57.9C726.866,594.559,712.745,605.308,701.165,608.143Z" transform="translate(-700.976 -161.254)" fill="#1c30e0"/>
          </g>
          <g id="Group_103" data-name="Group 103" transform="translate(168.085 92.534)" opacity="0.407">
            <path id="Path_1098" data-name="Path 1098" d="M740.689,632.179l-.263-.691c8.478-3.224,21.852-12.663,33.964-29.486,10.352-14.379,19.867-33.082,29.088-57.179,1.785-4.706,3.383-10.417,5.074-16.464,4.093-14.629,8.325-29.756,15.684-31.183.246-.048.494-.085.741-.123.2-.031.407-.061.609-.1l.068-.013.068.013c15.127,2.929,25.017-8.722,34.581-19.992,7.466-8.8,15.185-17.891,25.239-19.493,5.925-.946,12.257.644,18.38,2.18,6.247,1.566,12.149,3.047,17.052,1.716,16.471-4.47,30.586-7.016,49.678,3.957,9.247,5.314,20.449,14.186,34.247,27.124,10.834,10.159,27.074,10.939,41.4,11.628,1.421.068,2.817.136,4.179.211,27.216,1.5,45.438-12.134,54.161-40.54a211.107,211.107,0,0,0,5.8-23.2,215.151,215.151,0,0,1,18.209-54.062c10.528-21.127,22.5-34.756,35.6-40.51a155.439,155.439,0,0,0,15.325-7.807c5.94-3.431,11.3-6.747,16.491-9.954,9.2-5.686,17.883-11.058,27.1-15.281,7.3-3.346,17.2-3.565,27.689-3.8,3.36-.074,6.833-.151,10.267-.335l.1-.005a84.9,84.9,0,0,0,20.657-3.45c17.47-5.477,30.855-14.589,39.784-27.085a70.968,70.968,0,0,0,4.663-7.5c3.762-7,6.554-14.836,9.253-22.413,1.917-5.382,3.9-10.948,6.2-16.122a75.544,75.544,0,0,1,10.536-17.454c8.457-10.228,19.716-17.408,36.508-23.28,27.217-9.517,55.429-11.216,81.585-4.911l-.173.719c-26.018-6.271-54.085-4.58-81.167,4.889-16.658,5.825-27.816,12.935-36.182,23.053a74.782,74.782,0,0,0-10.431,17.284c-2.292,5.148-4.269,10.7-6.182,16.069-2.708,7.6-5.509,15.466-9.3,22.516a71.651,71.651,0,0,1-4.713,7.581c-9.024,12.629-22.537,21.835-40.164,27.36a85.594,85.594,0,0,1-20.838,3.482l-.1.005c-3.446.185-6.925.262-10.291.336-10.407.231-20.235.449-27.4,3.731-9.175,4.2-17.843,9.564-27.02,15.238-5.191,3.21-10.559,6.529-16.51,9.965a155.888,155.888,0,0,1-15.4,7.844c-12.932,5.683-24.787,19.2-35.235,40.162a214.4,214.4,0,0,0-18.144,53.87,211.869,211.869,0,0,1-5.818,23.281c-8,26.039-23.891,39.828-47.293,41.082a70.14,70.14,0,0,1-7.616-.02c-1.361-.076-2.755-.143-4.175-.21-14.455-.7-30.839-1.483-41.871-11.827-13.755-12.9-24.913-21.736-34.11-27.022-18.846-10.831-32.813-8.307-49.115-3.884-5.09,1.382-11.082-.121-17.425-1.713-6.051-1.518-12.3-3.087-18.084-2.167-9.784,1.558-17.074,10.148-24.792,19.241-9.688,11.414-19.7,23.217-35.218,20.252-.187.033-.374.061-.562.09-.237.035-.474.071-.71.116-6.912,1.341-11.081,16.244-15.113,30.656-1.7,6.064-3.3,11.79-5.1,16.529-9.245,24.159-18.79,42.917-29.179,57.348C764.777,616.619,751.634,628.017,740.689,632.179Z" transform="translate(-740.426 -182.84)" fill="#1c30e0"/>
          </g>
          <g id="Group_104" data-name="Group 104" transform="translate(178.539 98.233)" opacity="0.37">
            <path id="Path_1099" data-name="Path 1099" d="M780.223,656.161l-.323-.6c8.027-4.327,20.52-14.8,31.514-31.213,9.622-14.366,18.677-32.9,27.682-56.656,1.726-4.594,3.283-10.072,4.932-15.871,4.053-14.256,8.245-29,15.376-31.154.239-.073.481-.135.722-.2.192-.049.383-.1.574-.153l.065-.019.067.008c13.955,1.588,23.477-9.6,32.684-20.427,7.563-8.892,15.384-18.087,25.56-19.842,5.816-1,12.063.565,18.1,2.081,6.342,1.592,12.332,3.1,17.241,1.505,14.256-4.622,29-9.4,49.594,2.349,9.3,5.306,20.439,14.2,34.044,27.2,10.653,10.178,26.955,10.51,41.338,10.8,1.472.03,2.917.059,4.325.1,26.779.754,45.027-13.131,54.249-41.287a214.233,214.233,0,0,0,6.244-23.056,240.131,240.131,0,0,1,18.37-53.9c10.32-21.164,22.021-35.029,34.778-41.21,4.829-2.34,9.793-4.987,15.178-8.092q2.713-1.565,5.305-3.068c14.108-8.17,26.292-15.226,39.458-20.347,7.156-2.783,16.461-3,26.309-3.239,3.861-.092,7.852-.185,11.8-.442a82.358,82.358,0,0,0,20.568-3.76c16.956-5.633,30.532-15.237,39.261-27.773a73.654,73.654,0,0,0,4.582-7.538c3.625-6.866,6.367-14.5,9.018-21.888,1.987-5.533,4.041-11.255,6.438-16.557a73.679,73.679,0,0,1,10.651-17.322c10.9-12.864,25.446-18.772,36.9-22.481,27.271-8.83,55.472-10.153,81.559-3.825l-.16.663c-25.965-6.3-54.039-4.98-81.189,3.811-11.371,3.682-25.806,9.541-36.592,22.273A73.015,73.015,0,0,0,1375.9,252.2c-2.386,5.277-4.436,10.985-6.417,16.506-2.66,7.408-5.411,15.068-9.058,21.977a74.293,74.293,0,0,1-4.625,7.608c-8.813,12.659-22.508,22.352-39.6,28.031a83.018,83.018,0,0,1-20.739,3.793c-3.965.257-7.962.351-11.829.443-9.788.233-19.033.453-26.078,3.193-13.117,5.1-25.281,12.146-39.364,20.3q-2.6,1.5-5.307,3.069c-5.4,3.113-10.377,5.768-15.221,8.115-12.617,6.114-24.211,19.873-34.462,40.895a239.433,239.433,0,0,0-18.316,53.738A214.878,214.878,0,0,1,1138.621,483c-4.746,14.489-12.017,25.376-21.61,32.358-9.076,6.6-20.28,9.769-33.306,9.4-1.406-.04-2.849-.069-4.318-.1-14.507-.3-30.951-.631-41.8-10.992-13.565-12.959-24.657-21.824-33.911-27.1-20.334-11.6-34.93-6.868-49.046-2.293-5.094,1.65-11.178.125-17.617-1.492-5.973-1.5-12.151-3.049-17.822-2.071-9.933,1.714-17.327,10.408-25.156,19.612-9.309,10.944-18.937,22.26-33.214,20.671-.175.049-.352.095-.528.14-.232.059-.464.119-.694.188-6.775,2.05-10.915,16.609-14.918,30.688-1.653,5.813-3.215,11.3-4.95,15.925-9.024,23.808-18.1,42.385-27.754,56.8C800.917,641.246,788.322,651.8,780.223,656.161Z" transform="translate(-779.9 -204.359)" fill="#1c30e0"/>
          </g>
          <g id="Group_105" data-name="Group 105" transform="translate(189.003 103.912)" opacity="0.333">
            <path id="Path_1100" data-name="Path 1100" d="M819.773,680.085l-.367-.5c9.844-7.163,20.706-19.477,29.057-32.942,8.879-14.318,17.474-32.679,26.275-56.132,1.663-4.471,3.177-9.7,4.78-15.244,4.019-13.891,8.176-28.255,15.084-31.157.23-.1.465-.184.7-.271.181-.068.363-.135.543-.207l.059-.024.064,0c12.775.3,21.885-10.408,30.7-20.765,7.685-9.031,15.631-18.369,25.97-20.292,5.714-1.064,11.886.489,17.854,1.989,6.428,1.616,12.5,3.141,17.406,1.287,14.207-5.373,28.9-10.927,49.507.741,9.352,5.294,20.421,14.218,33.841,27.282,10.49,10.211,26.876,10.093,41.334,9.987,1.5-.011,2.977-.022,4.412-.02,25.959.036,44.741-14.5,54.336-42.031a217.165,217.165,0,0,0,6.692-22.912,272.042,272.042,0,0,1,18.531-53.732c10.113-21.208,21.538-35.308,33.957-41.911,5.558-2.954,10.95-6.029,15.027-8.377,18.926-10.9,32.235-17.156,45.934-21.594,6.947-2.25,15.618-2.458,24.8-2.679,4.371-.1,8.892-.213,13.367-.549a80.056,80.056,0,0,0,20.48-4.07c16.688-5.859,30.082-15.7,38.738-28.462a76.612,76.612,0,0,0,4.5-7.573c3.484-6.721,6.173-14.152,8.773-21.338,2.06-5.692,4.189-11.579,6.687-17.016a71.833,71.833,0,0,1,10.765-17.19c10.96-12.629,25.688-18.222,37.3-21.683,27.314-8.146,55.509-9.093,81.536-2.74l-.148.606c-25.919-6.327-54-5.383-81.21,2.732-11.526,3.437-26.148,8.987-37,21.494a71.262,71.262,0,0,0-10.67,17.043c-2.485,5.413-4.611,11.287-6.666,16.967-2.607,7.205-5.3,14.655-8.806,21.414a77.313,77.313,0,0,1-4.537,7.635c-8.73,12.873-22.232,22.8-39.048,28.7a80.689,80.689,0,0,1-20.64,4.1c-4.493.337-9.021.445-13.4.551-9.133.219-17.759.425-24.62,2.648-13.655,4.423-26.929,10.664-45.816,21.541-4.081,2.351-9.479,5.429-15.045,8.387-12.3,6.538-23.633,20.544-33.687,41.628a271.423,271.423,0,0,0-18.486,53.6,217.868,217.868,0,0,1-6.71,22.977c-9.692,27.8-28.686,42.484-54.926,42.45-1.433,0-2.906.009-4.407.02-14.578.105-31.1.225-41.773-10.164-13.381-13.026-24.409-21.918-33.714-27.186-20.355-11.524-34.907-6.022-48.979-.7-5.089,1.924-11.252.375-17.778-1.265-5.9-1.484-12.007-3.018-17.589-1.981-10.121,1.883-17.995,11.135-25.609,20.083-8.5,9.992-17.283,20.308-29.428,20.959q-.838.045-1.7.027c-.166.065-.332.127-.5.189-.226.084-.453.168-.675.262-6.633,2.786-10.747,17-14.726,30.755-1.607,5.552-3.124,10.8-4.8,15.289-8.816,23.493-17.428,41.89-26.329,56.243C840.6,660.5,829.679,672.877,819.773,680.085Z" transform="translate(-819.406 -225.8)" fill="#1c30e0"/>
          </g>
          <g id="Group_106" data-name="Group 106" transform="translate(199.476 109.567)" opacity="0.296">
            <path id="Path_1101" data-name="Path 1101" d="M859.341,703.942l-.391-.409a156.776,156.776,0,0,0,26.59-34.673c8.225-14.4,16.126-32.072,24.867-55.607,1.6-4.333,3.062-9.306,4.614-14.571,3.994-13.54,8.123-27.542,14.812-31.206.222-.122.449-.235.677-.348.171-.085.342-.169.512-.259l.109-.032c11.569-.922,20.226-11.115,28.6-20.973,7.837-9.227,15.94-18.768,26.495-20.876,5.619-1.121,11.724.416,17.628,1.9,6.507,1.639,12.653,3.186,17.549,1.065,14.143-6.13,28.767-12.469,49.418-.866,9.391,5.277,20.395,14.227,33.637,27.36,10.343,10.258,26.835,9.683,41.386,9.176,1.515-.053,3-.1,4.445-.142,25.505-.662,44.308-15.455,54.421-42.777a219.707,219.707,0,0,0,7.138-22.766,309.96,309.96,0,0,1,18.692-53.57c10.048-21.56,20.889-35.5,33.139-42.612q2.979-1.73,5.93-3.459c2.936-1.717,5.972-3.492,8.946-5.2,16.365-9.413,30.892-15.51,47.1-19.769,6.671-1.753,14.669-1.931,23.137-2.119,4.932-.11,10.034-.223,15.088-.657a78.027,78.027,0,0,0,20.393-4.38c16.418-6.078,29.633-16.159,38.213-29.152a79.816,79.816,0,0,0,4.419-7.608,187.387,187.387,0,0,0,8.514-20.763c2.135-5.86,4.343-11.921,6.946-17.5a70.156,70.156,0,0,1,10.879-17.059c11.027-12.4,25.934-17.676,37.689-20.884,27.348-7.465,55.534-8.038,81.512-1.656l-.135.55c-25.885-6.359-53.973-5.788-81.229,1.652-11.68,3.188-26.486,8.424-37.414,20.714a69.6,69.6,0,0,0-10.789,16.923c-2.592,5.556-4.8,11.6-6.927,17.454a187.926,187.926,0,0,1-8.542,20.826,80.5,80.5,0,0,1-4.451,7.662c-8.648,13.095-21.957,23.251-38.49,29.371a78.588,78.588,0,0,1-20.54,4.413c-5.072.436-10.182.549-15.124.659-8.435.188-16.4.365-23.005,2.1-16.159,4.246-30.643,10.326-46.963,19.713-2.972,1.709-6.007,3.484-8.942,5.2q-2.953,1.726-5.932,3.46c-12.147,7.053-22.912,20.91-32.91,42.36a309.33,309.33,0,0,0-18.656,53.469,220.415,220.415,0,0,1-7.156,22.825c-9.952,26.887-28.282,41.745-53.077,43.073-.617.033-1.235.057-1.86.074-1.443.038-2.926.089-4.44.142-14.665.511-31.288,1.091-41.8-9.339-13.206-13.1-24.169-22.017-33.516-27.268-20.407-11.466-34.9-5.184-48.916.891-5.074,2.2-11.31.627-17.912-1.035-5.843-1.472-11.885-3-17.379-1.9-10.362,2.07-18.4,11.534-26.174,20.688-8.433,9.929-17.153,20.2-28.926,21.165-.156.082-.315.16-.472.238-.221.11-.441.219-.656.337-6.484,3.552-10.579,17.439-14.541,30.87-1.555,5.273-3.025,10.255-4.627,14.607-8.751,23.565-16.665,41.261-24.906,55.692A157.356,157.356,0,0,1,859.341,703.942Z" transform="translate(-858.95 -247.152)" fill="#1c30e0"/>
          </g>
          <g id="Group_107" data-name="Group 107" transform="translate(209.959 115.195)" opacity="0.259">
            <path id="Path_1102" data-name="Path 1102" d="M898.925,727.729l-.4-.32a220.65,220.65,0,0,0,24.115-36.4c7.409-14.178,14.862-31.68,23.457-55.082,1.52-4.173,2.933-8.865,4.428-13.831,3.979-13.212,8.092-26.873,14.568-31.321.214-.146.433-.286.653-.425.161-.1.322-.2.481-.31l.091-.038c10.34-2.057,18.476-11.687,26.344-21,8.027-9.5,16.327-19.326,27.169-21.642,5.534-1.179,11.577.345,17.422,1.82,6.579,1.66,12.792,3.229,17.675.836,14.72-7.214,28.612-14.021,49.326-2.472,9.427,5.257,20.364,14.232,33.433,27.438,10.21,10.317,26.83,9.277,41.491,8.363,1.51-.094,2.99-.187,4.428-.263,25.01-1.338,43.858-16.387,54.5-43.521a222.21,222.21,0,0,0,7.585-22.622,363.146,363.146,0,0,1,18.854-53.409c9.844-21.621,20.417-35.789,32.322-43.312,5.875-3.712,10.415-6.471,14.72-8.944,15.262-8.767,29.7-14.133,48.265-17.944,6.308-1.295,13.588-1.428,21.3-1.568,5.555-.1,11.3-.206,16.992-.757a76.128,76.128,0,0,0,20.306-4.691c11.261-4.386,26.941-13.123,37.689-29.842a82.969,82.969,0,0,0,4.337-7.643,197.354,197.354,0,0,0,8.245-20.164c2.214-6.037,4.5-12.28,7.215-18.006a68.545,68.545,0,0,1,10.993-16.927c11.1-12.185,26.181-17.135,38.081-20.085,27.367-6.787,55.547-6.985,81.491-.573l-.122.493c-25.863-6.393-53.958-6.2-81.246.572-11.83,2.934-26.82,7.851-37.827,19.934a68.032,68.032,0,0,0-10.909,16.8c-2.7,5.7-4.988,11.937-7.2,17.963a197.827,197.827,0,0,1-8.268,20.216,83.552,83.552,0,0,1-4.364,7.69c-8.566,13.324-21.683,23.712-37.932,30.041a76.64,76.64,0,0,1-20.441,4.724c-5.715.553-11.468.657-17.032.759-7.685.14-14.942.272-21.2,1.558-18.512,3.8-32.9,9.148-48.114,17.886-4.3,2.47-8.833,5.225-14.7,8.934-11.819,7.47-22.329,21.566-32.131,43.094a362.636,362.636,0,0,0-18.826,53.333,222.685,222.685,0,0,1-7.6,22.673c-5.361,13.662-12.867,24.365-22.31,31.813a56.492,56.492,0,0,1-32.639,12.03h0c-1.437.077-2.916.169-4.424.263-14.038.88-31.513,1.968-41.885-8.513-13.035-13.171-23.934-22.118-33.319-27.351-20.481-11.421-34.258-4.669-48.843,2.478-5.062,2.48-11.364.89-18.035-.794-5.788-1.461-11.774-2.972-17.191-1.815-10.672,2.28-18.915,12.037-26.887,21.473-7.912,9.366-16.093,19.05-26.584,21.162-.148.1-.3.193-.448.288-.215.136-.429.272-.637.415-6.328,4.347-10.416,17.921-14.369,31.048-1.5,4.974-2.913,9.672-4.438,13.859-8.6,23.422-16.065,40.944-23.484,55.143A221.2,221.2,0,0,1,898.925,727.729Z" transform="translate(-898.53 -268.402)" fill="#1c30e0"/>
          </g>
          <g id="Group_108" data-name="Group 108" transform="translate(220.451 120.792)" opacity="0.222">
            <path id="Path_1103" data-name="Path 1103" d="M938.526,751.432l-.381-.24.406-.645c5.9-9.373,13.978-22.208,21.227-37.483,8.4-17.707,15.86-37.514,22.047-54.555,1.434-3.98,2.782-8.358,4.209-12.992,3.978-12.916,8.091-26.272,14.363-31.536.205-.172.416-.339.628-.5.151-.119.3-.237.452-.359l.07-.038c9.075-3.068,16.268-11.668,23.884-20.773,8.269-9.887,16.819-20.109,28.047-22.666,5.448-1.245,11.439.273,17.231,1.74,6.646,1.682,12.923,3.27,17.788.6l.286-.157c14.474-7.934,28.147-15.429,48.945-3.92,9.459,5.233,20.328,14.234,33.228,27.516,10.087,10.385,27.581,8.811,41.641,7.546,1.49-.134,2.949-.265,4.368-.381,24.16-1.961,43.545-17.681,54.585-44.265a223.849,223.849,0,0,0,8.032-22.477c6.163-20.816,12.383-38.234,19.016-53.249,9.643-21.694,19.949-36.091,31.508-44.014,5.244-3.595,10.008-6.614,14.565-9.228,18-10.324,34.391-13.847,49.425-16.116a144.43,144.43,0,0,1,19.24-1.039c6.248-.073,12.708-.149,19.115-.837a74.461,74.461,0,0,0,20.219-5c15.878-6.493,28.73-17.051,37.165-30.532a86.762,86.762,0,0,0,4.254-7.677,208.535,208.535,0,0,0,7.961-19.534c2.3-6.225,4.671-12.661,7.5-18.543a66.957,66.957,0,0,1,11.106-16.8c11.174-11.975,26.429-16.6,38.471-19.287,27.377-6.114,55.549-5.937,81.47.511l-.109.437c-25.853-6.431-53.953-6.607-81.264-.508-11.979,2.676-27.151,7.27-38.239,19.155a66.5,66.5,0,0,0-11.03,16.684c-2.82,5.862-5.191,12.288-7.483,18.5a208.782,208.782,0,0,1-7.979,19.576,87.375,87.375,0,0,1-4.277,7.718c-8.485,13.562-21.41,24.182-37.376,30.71a74.9,74.9,0,0,1-20.341,5.033c-6.428.693-12.9.767-19.159.841a144,144,0,0,0-19.177,1.033c-14.991,2.263-31.334,5.775-49.267,16.062-4.546,2.608-9.3,5.62-14.535,9.208-11.487,7.875-21.742,22.211-31.35,43.825-6.625,15-12.839,32.4-19,53.194a224.072,224.072,0,0,1-8.048,22.522c-5.567,13.407-13.149,24.053-22.535,31.645a58.107,58.107,0,0,1-32.429,12.9c-1.418.115-2.876.246-4.364.38-14.155,1.273-31.768,2.858-42.005-7.682-12.869-13.249-23.7-22.223-33.123-27.435-20.581-11.387-34.147-3.951-48.511,3.921l-.286.157c-5.02,2.752-11.38,1.142-18.115-.563-5.74-1.453-11.675-2.956-17.021-1.738-11.079,2.524-19.579,12.688-27.8,22.516-7.647,9.142-14.871,17.779-24.047,20.9-.141.114-.284.226-.426.338-.208.163-.415.326-.617.495-6.17,5.179-10.263,18.47-14.222,31.324-1.429,4.64-2.779,9.022-4.216,13.013-6.19,17.051-13.652,36.87-22.063,54.594-7.26,15.3-15.348,28.149-21.253,37.531Z" transform="translate(-938.145 -289.533)" fill="#1c30e0"/>
          </g>
          <g id="Group_109" data-name="Group 109" transform="translate(230.95 126.352)" opacity="0.185">
            <path id="Path_1104" data-name="Path 1104" d="M978.139,775.039l-.353-.172c1.389-2.846,2.939-5.924,4.579-9.183,4.533-9,9.671-19.208,14.565-30.667,7.248-16.97,14.167-35.994,20.634-54.026,1.33-3.734,2.6-7.748,3.936-12,4-12.675,8.133-25.783,14.22-31.911.092-.093.181-.189.271-.284a5.366,5.366,0,0,1,.777-.727c6.128-4.377,11.777-11.016,17.757-18.043,9.65-11.34,19.627-23.066,32.611-26.211,5.373-1.3,11.312.205,17.055,1.664,6.708,1.7,13.043,3.312,17.887.368l.507-.308c14.258-8.665,27.725-16.851,48.627-5.374,9.486,5.208,20.287,14.233,33.022,27.592,9.977,10.467,27.646,8.39,41.842,6.722,1.453-.171,2.876-.338,4.259-.489,23.644-2.578,43.057-18.562,54.664-45.006a225.336,225.336,0,0,0,8.479-22.332c5.2-16.328,11.551-35.405,19.178-53.092,9.575-22.079,19.329-36.288,30.694-44.716a145.888,145.888,0,0,1,14.407-9.509c16.272-9.322,31.418-12.378,50.582-14.288,5.289-.528,10.98-.541,17-.556a188.387,188.387,0,0,0,21.422-.873,73.449,73.449,0,0,0,20.132-5.313,78.612,78.612,0,0,0,36.64-31.223c1.437-2.36,2.84-4.954,4.172-7.712,2.9-6.039,5.323-12.561,7.662-18.869,2.382-6.425,4.845-13.068,7.8-19.114a65.447,65.447,0,0,1,11.219-16.663c11.253-11.773,26.679-16.065,38.862-18.488a187.211,187.211,0,0,1,81.451,1.593l-.1.382a186.817,186.817,0,0,0-81.28-1.59c-12.126,2.413-27.477,6.681-38.654,18.375a65.052,65.052,0,0,0-11.15,16.564c-2.946,6.028-5.405,12.662-7.784,19.078-2.342,6.316-4.764,12.847-7.677,18.9-1.337,2.769-2.747,5.375-4.19,7.745a79,79,0,0,1-36.82,31.379,73.825,73.825,0,0,1-20.24,5.342,188.747,188.747,0,0,1-21.467.876c-6.016.015-11.7.028-16.967.554-19.113,1.9-34.214,4.951-50.426,14.238a145.32,145.32,0,0,0-14.368,9.484c-11.308,8.385-21.02,22.543-30.568,44.557-7.62,17.67-13.964,36.735-19.165,53.054a225.781,225.781,0,0,1-8.493,22.37c-11.666,26.579-31.192,42.645-54.981,45.239-1.383.151-2.8.318-4.256.488-14.283,1.679-32.058,3.767-42.172-6.84-12.707-13.329-23.477-22.331-32.928-27.519-20.7-11.367-34.076-3.239-48.234,5.365l-.507.308c-4.985,3.029-11.4,1.4-18.188-.324-5.7-1.446-11.586-2.941-16.866-1.663-12.86,3.115-22.8,14.792-32.4,26.084-6,7.047-11.661,13.7-17.828,18.109a4.971,4.971,0,0,0-.718.675c-.093.1-.185.2-.28.293-6.019,6.06-10.139,19.121-14.123,31.753-1.341,4.252-2.609,8.269-3.941,12.011-6.469,18.037-13.391,37.068-20.643,54.048-4.9,11.47-10.04,21.681-14.576,30.69C981.076,769.118,979.527,772.194,978.139,775.039Z" transform="translate(-977.786 -310.525)" fill="#1c30e0"/>
          </g>
          <g id="Group_110" data-name="Group 110" transform="translate(241.455 131.848)" opacity="0.148">
            <path id="Path_1105" data-name="Path 1105" d="M1017.763,798.476l-.314-.117c2.121-5.667,4.711-11.954,7.453-18.611,3-7.294,6.112-14.836,9.2-22.957,5.078-13.358,10.2-27.9,15.154-41.966q2.027-5.755,4.068-11.529c1.195-3.4,2.347-6.959,3.567-10.731,4.051-12.529,8.239-25.484,14.177-32.561.089-.106.175-.214.261-.321a6.776,6.776,0,0,1,.724-.813c4.765-4.311,9.377-10.007,14.259-16.038,10.126-12.507,20.6-25.441,34.5-29.014,5.3-1.362,11.193.139,16.89,1.59,6.766,1.724,13.157,3.352,17.978.129l.685-.457c6.736-4.506,13.7-9.167,21.441-11.155,8.672-2.227,17.473-.812,26.909,4.328,9.508,5.18,20.242,14.23,32.816,27.669,9.879,10.559,27.739,7.968,42.091,5.885,1.4-.2,2.77-.4,4.1-.585,23.1-3.168,42.54-19.414,54.742-45.748a229.4,229.4,0,0,0,8.926-22.186l1.279-3.75c5.546-16.257,11.28-33.069,18.062-49.184,9.376-22.174,18.871-36.606,29.883-45.419a110.588,110.588,0,0,1,14.246-9.789c17.4-9.953,34.421-11.574,51.735-12.459,4.555-.232,9.3-.18,14.332-.123,7.9.089,16.078.178,24.17-.859a71.909,71.909,0,0,0,20.046-5.625,79.231,79.231,0,0,0,36.115-31.913c1.4-2.363,2.775-4.97,4.089-7.746,2.755-5.838,5.091-12.11,7.349-18.174a208.575,208.575,0,0,1,8.112-19.714A63.971,63.971,0,0,1,1588.144,352c11.389-11.632,26.959-15.563,39.251-17.69a196.157,196.157,0,0,1,81.433,2.676l-.082.325a195.81,195.81,0,0,0-81.293-2.671c-12.244,2.117-27.748,6.031-39.069,17.594a63.647,63.647,0,0,0-11.271,16.445,208.5,208.5,0,0,0-8.1,19.682c-2.261,6.072-4.6,12.35-7.36,18.2-1.319,2.785-2.7,5.4-4.1,7.773a79.562,79.562,0,0,1-36.266,32.048,72.252,72.252,0,0,1-20.14,5.651c-8.115,1.043-16.3.951-24.217.862-5.022-.056-9.766-.11-14.311.122-17.284.889-34.253,2.5-51.586,12.415a110.342,110.342,0,0,0-14.2,9.76c-10.966,8.777-20.43,23.167-29.783,45.288-6.777,16.1-12.51,32.91-18.054,49.162l-1.28,3.751a229.809,229.809,0,0,1-8.939,22.219c-12.252,26.441-31.784,42.756-55,45.939-1.332.183-2.7.382-4.1.585-14.428,2.093-32.385,4.7-42.384-5.987-12.549-13.412-23.256-22.441-32.732-27.6-20.845-11.357-34.037-2.531-48,6.811l-.684.458c-4.946,3.305-11.407,1.659-18.247-.082-5.657-1.441-11.507-2.932-16.724-1.591-13.8,3.546-24.236,16.435-34.328,28.9-4.891,6.041-9.511,11.747-14.294,16.076a6.392,6.392,0,0,0-.687.773c-.088.111-.176.221-.266.328-5.9,7.028-10.074,19.951-14.115,32.449-1.22,3.774-2.373,7.338-3.569,10.739q-2.042,5.767-4.068,11.529c-4.954,14.067-10.078,28.612-15.157,41.974-3.088,8.124-6.2,15.669-9.2,22.965C1022.471,786.529,1019.882,792.814,1017.763,798.476Z" transform="translate(-1017.449 -331.277)" fill="#1c30e0"/>
          </g>
          <g id="Group_111" data-name="Group 111" transform="translate(251.963 137.27)" opacity="0.111">
            <path id="Path_1106" data-name="Path 1106" d="M1057.393,821.712l-.267-.075c2.616-9.319,6.13-19.633,9.849-30.551,1.406-4.127,2.86-8.394,4.307-12.728q2.154-6.455,4.345-13.078c4.323-13.038,8.794-26.519,13.462-39.884,1-2.871,1.969-5.806,3-8.914,4.164-12.569,8.469-25.567,14.337-33.766.083-.116.164-.233.245-.352a9.376,9.376,0,0,1,.679-.905c3.369-3.812,6.736-8.274,10.3-13,10.161-13.463,21.678-28.723,36.851-32.849,5.231-1.422,11.081.073,16.737,1.519,6.819,1.744,13.262,3.391,18.058-.114l.823-.6c6.638-4.858,13.5-9.88,21.19-12.143,8.617-2.537,17.423-1.274,26.919,3.858,9.528,5.15,20.2,14.225,32.61,27.745,9.791,10.662,27.865,7.54,42.386,5.032,1.331-.23,2.635-.455,3.9-.665,22.521-3.725,41.989-20.235,54.816-46.488a229.932,229.932,0,0,0,9.374-22.041c1.792-4.912,3.61-10.022,5.369-14.963,4.447-12.492,9.044-25.409,14.136-37.817,5.777-14.022,15.076-34.059,29.073-46.123a90.69,90.69,0,0,1,14.085-10.068c17.026-9.729,34.025-10.571,52.886-10.629,3.725-.026,7.506.085,11.509.2,8.864.261,18.03.528,27.071-.738a70.546,70.546,0,0,0,19.96-5.938,80.991,80.991,0,0,0,35.588-32.6c1.38-2.4,2.69-4.942,4.006-7.78,2.6-5.622,4.848-11.63,7.019-17.44a206.043,206.043,0,0,1,8.441-20.353,62.593,62.593,0,0,1,11.444-16.4c11.4-11.365,26.434-14.917,39.64-16.892a204.29,204.29,0,0,1,81.416,3.758l-.068.269a204,204,0,0,0-81.307-3.753c-13.161,1.969-28.144,5.506-39.485,16.814a62.34,62.34,0,0,0-11.393,16.326,205.935,205.935,0,0,0-8.429,20.325c-2.173,5.815-4.422,11.827-7.027,17.46-1.32,2.845-2.633,5.4-4.017,7.8a81.276,81.276,0,0,1-35.71,32.717,70.834,70.834,0,0,1-20.039,5.961c-9.068,1.273-18.243,1-27.118.741-4-.118-7.779-.229-11.5-.2-18.823.06-35.784.9-52.75,10.593a90.4,90.4,0,0,0-14.041,10.038c-13.952,12.025-23.232,32.022-29,46.018-5.09,12.4-9.686,25.315-14.131,37.8-1.759,4.942-3.578,10.052-5.371,14.965a230.041,230.041,0,0,1-9.385,22.068c-12.868,26.335-32.408,42.9-55.02,46.639-1.268.21-2.571.435-3.9.665-14.588,2.518-32.744,5.655-42.638-5.118-12.394-13.5-23.037-22.553-32.538-27.689-21-11.353-34.027-1.824-47.813,8.265l-.823.6c-4.9,3.582-11.405,1.92-18.291.159-5.621-1.437-11.435-2.925-16.6-1.52-15.082,4.1-26.568,19.321-36.7,32.748-3.568,4.728-6.939,9.194-10.315,13.014a9.182,9.182,0,0,0-.658.878c-.083.119-.164.239-.248.356-5.844,8.164-10.142,21.141-14.3,33.691-1.03,3.109-2,6.045-3,8.917-4.667,13.363-9.137,26.844-13.46,39.88q-2.194,6.614-4.346,13.079c-1.447,4.335-2.9,8.6-4.307,12.73C1063.519,802.09,1060.007,812.4,1057.393,821.712Z" transform="translate(-1057.126 -351.748)" fill="#1c30e0"/>
          </g>
          <g id="Group_112" data-name="Group 112" transform="translate(262.474 142.694)" opacity="0.074">
            <path id="Path_1107" data-name="Path 1107" d="M1097.027,844.963l-.215-.044c2.82-13.934,7.124-29.232,11.658-44.99,5.678-19.73,11.04-36.879,16.393-52.429.644-1.878,1.291-3.792,1.945-5.724,4.419-13.071,8.988-26.586,14.988-36.344q.115-.188.227-.376c.2-.334.407-.68.639-1,1.813-2.547,3.638-5.228,5.57-8.067,10.744-15.784,22.922-33.674,39.965-38.57,5.166-1.483,10.975.005,16.593,1.446,6.869,1.762,13.356,3.425,18.131-.357l.8-.64c6.555-5.236,13.334-10.65,20.994-13.207,8.589-2.867,17.432-1.767,27.032,3.361,9.577,5.155,20.176,14.255,32.4,27.82,9.713,10.776,28.019,7.107,42.728,4.161,1.247-.25,2.469-.495,3.659-.726,21.905-4.248,41.4-21.02,54.89-47.227a229.555,229.555,0,0,0,9.821-21.9c2.989-7.694,5.919-15.756,8.753-23.552,3.485-9.587,7.088-19.5,10.918-29.074,6.133-15.291,14.889-34.433,28.264-46.826a76.273,76.273,0,0,1,13.921-10.346c17.939-10.237,37.115-9.473,54.033-8.8,2.636.1,5.373.243,8.021.383,10.051.531,20.445,1.081,30.642-.473a69.275,69.275,0,0,0,19.875-6.249,81.7,81.7,0,0,0,35.062-33.295c1.339-2.4,2.622-4.951,3.923-7.813,2.445-5.391,4.593-11.121,6.671-16.663a203.539,203.539,0,0,1,8.788-21.034,61.29,61.29,0,0,1,11.557-16.265c11.478-11.172,26.675-14.4,40.027-16.094a216.405,216.405,0,0,1,81.4,4.84l-.054.213a216.166,216.166,0,0,0-81.319-4.835c-13.316,1.685-28.47,4.907-39.9,16.034a61.065,61.065,0,0,0-11.514,16.207,203.236,203.236,0,0,0-8.778,21.012c-2.079,5.545-4.229,11.279-6.677,16.676-1.3,2.868-2.589,5.429-3.932,7.83a81.927,81.927,0,0,1-35.156,33.385,69.53,69.53,0,0,1-19.937,6.269c-10.22,1.558-20.625,1.007-30.687.475-2.646-.14-5.383-.285-8.017-.383-16.889-.673-36.032-1.435-53.917,8.77a76.1,76.1,0,0,0-13.88,10.317c-13.343,12.364-22.084,31.477-28.21,46.747-3.827,9.569-7.43,19.481-10.914,29.067-2.834,7.8-5.765,15.861-8.754,23.557a230.341,230.341,0,0,1-9.83,21.917c-6.455,12.537-14.326,22.982-23.4,31.045-9.7,8.622-20.347,14.1-31.647,16.3-1.19.231-2.412.476-3.658.726-14.763,2.958-33.137,6.641-42.933-4.229-12.21-13.547-22.79-22.632-32.344-27.774-21.265-11.359-34.147-1.069-47.786,9.824l-.8.641c-4.86,3.851-11.4,2.173-18.322.4-5.59-1.434-11.368-2.915-16.478-1.448-16.968,4.873-29.121,22.728-39.844,38.482-1.933,2.84-3.759,5.522-5.573,8.071-.226.318-.431.66-.629.991-.075.126-.151.252-.228.377-5.987,9.737-10.553,23.24-14.968,36.3-.654,1.933-1.3,3.848-1.945,5.726-5.351,15.546-10.713,32.692-16.389,52.418C1104.148,815.743,1099.845,831.037,1097.027,844.963Z" transform="translate(-1096.812 -372.23)" fill="#1c30e0"/>
          </g>
          <g id="Group_113" data-name="Group 113" transform="translate(272.987 148.054)" opacity="0.037">
            <path id="Path_1108" data-name="Path 1108" d="M1136.664,868.037l-.16-.021a455.969,455.969,0,0,1,9.16-46.7c4.231-17.6,9.271-35.059,14.977-51.892,5.075-15,10.158-29.454,16.533-41.462l.2-.381c.195-.37.4-.754.609-1.124,4.988-8.666,11.2-19.451,18.543-28.461,8.232-10.1,16.531-16.3,25.373-18.961,5.1-1.552,10.879-.064,16.466,1.377,6.916,1.784,13.448,3.469,18.188-.6l.95-.82c6.458-5.578,13.136-11.346,20.746-14.17,8.536-3.168,17.377-2.218,27.026,2.9s20.167,14.261,32.2,27.9c9.664,10.9,28.228,6.662,43.141,3.26,1.138-.259,2.255-.514,3.344-.756,21.242-4.731,40.761-21.765,54.961-47.964a226.376,226.376,0,0,0,10.269-21.75c4.079-9.891,7.884-20.291,11.564-30.349,2.665-7.284,5.42-14.815,8.27-22.127,6.005-15.388,14.553-34.7,27.458-47.532a66.013,66.013,0,0,1,13.755-10.623c17.552-10,36.681-8.462,55.179-6.969q1.977.157,3.972.324c11.443.947,23.276,1.926,34.776.032a67.9,67.9,0,0,0,19.789-6.562,82.266,82.266,0,0,0,34.534-33.986c1.3-2.395,2.556-4.962,3.84-7.847,2.285-5.142,4.329-10.582,6.305-15.842a200.912,200.912,0,0,1,9.153-21.758,60,60,0,0,1,11.668-16.132c11.561-10.985,26.917-13.9,40.414-15.3a230.025,230.025,0,0,1,81.386,5.921l-.04.157a229.8,229.8,0,0,0-81.329-5.917c-13.47,1.4-28.794,4.3-40.319,15.253a59.843,59.843,0,0,0-11.637,16.089,201.2,201.2,0,0,0-9.145,21.741c-1.977,5.262-4.021,10.7-6.309,15.851-1.285,2.889-2.543,5.46-3.845,7.858a82.434,82.434,0,0,1-34.6,34.053,68.078,68.078,0,0,1-19.836,6.578c-11.523,1.9-23.363.917-34.816-.03q-1.993-.165-3.972-.324c-18.474-1.489-37.576-3.031-55.086,6.949a65.866,65.866,0,0,0-13.721,10.6c-12.884,12.814-21.422,32.1-27.421,47.476-2.849,7.311-5.6,14.841-8.269,22.124-3.681,10.059-7.487,20.46-11.567,30.354a226.335,226.335,0,0,1-10.276,21.766,116.36,116.36,0,0,1-23.6,30.913c-9.792,8.9-20.378,14.663-31.466,17.131-1.089.243-2.205.5-3.344.757-14.957,3.41-33.571,7.656-43.3-3.311-12.016-13.62-22.533-22.734-32.15-27.859-21.409-11.367-34.719.128-47.591,11.245l-.95.821c-4.8,4.127-11.376,2.433-18.334.638-5.565-1.435-11.319-2.92-16.378-1.379-20.042,6.036-33.786,29.913-43.823,47.347-.211.367-.412.75-.605,1.119l-.2.381c-6.369,12-11.45,26.447-16.522,41.438-5.706,16.828-10.744,34.282-14.974,51.878A455.851,455.851,0,0,0,1136.664,868.037Z" transform="translate(-1136.504 -392.467)" fill="#1c30e0"/>
          </g>
          <g id="Group_114" data-name="Group 114" transform="translate(283.5 153.336)" opacity="0">
            <path id="Path_1109" data-name="Path 1109" d="M1176.3,890.9l-.1-.008a421.305,421.305,0,0,1,12.323-73.136,408.8,408.8,0,0,1,24.788-69.109c8.145-17.5,21.391-41.542,42.292-48.2,5.039-1.607,10.777-.12,16.325,1.317,6.969,1.8,13.551,3.51,18.259-.862l1.074-1c4.738-4.406,9.636-8.963,14.9-12.237,5.912-3.675,11.673-5.306,17.6-4.99,6.38.341,13.042,2.868,20.366,7.726,8.147,5.4,16.865,13.511,26.654,24.787,9.586,11.043,28.426,6.219,43.562,2.342q1.543-.395,3.026-.77c20.525-5.166,40.068-22.462,55.03-48.7,10.2-17.892,17.527-37.981,24.612-57.409,1.98-5.429,4.027-11.044,6.1-16.522,8.666-22.849,20.226-47.743,40.241-59.135,7.455-4.244,15.937-6.572,25.9-7.1.379-.02.758-.038,1.141-.054,9.333-.367,19.113.8,28.571,1.933,13.08,1.565,26.606,3.18,39.551.887,21.971-3.894,42.05-19.428,53.71-41.552,3.778-7.169,6.776-15.141,9.676-22.85a215.162,215.162,0,0,1,8.765-21.039c3.742-7.408,7.848-13.13,12.552-17.494,11.646-10.8,27.161-13.391,40.8-14.5a245.351,245.351,0,0,1,81.373,7l-.026.1a245.177,245.177,0,0,0-81.339-7c-13.622,1.106-29.115,3.691-40.738,14.472-10.464,9.705-15.968,24.34-21.291,38.493-2.9,7.712-5.9,15.687-9.681,22.861a85.411,85.411,0,0,1-23.043,27.6,70.994,70.994,0,0,1-30.741,14c-12.959,2.3-26.493.679-39.581-.886-19.713-2.357-38.334-4.583-55.544,5.212-19.987,11.376-31.534,36.25-40.194,59.082-2.078,5.477-4.125,11.091-6.1,16.52-7.085,19.432-14.413,39.525-24.619,57.424a128.916,128.916,0,0,1-23.8,30.79c-9.887,9.18-20.414,15.223-31.29,17.96q-1.48.372-3.026.77c-7.284,1.866-15.512,3.973-23.152,4.381q-.346.019-.69.032c-9.06.363-15.545-1.858-19.825-6.788-9.783-11.269-18.494-19.371-26.633-24.769-7.309-4.847-13.953-7.369-20.314-7.709-13.184-.7-22.967,8.4-32.431,17.2l-1.074,1c-4.75,4.41-11.36,2.7-18.356.886-5.534-1.433-11.256-2.914-16.268-1.318-20.862,6.649-34.092,30.662-42.229,48.147A418.239,418.239,0,0,0,1176.3,890.9Z" transform="translate(-1176.2 -412.411)" fill="#1c30e0"/>
          </g>
        </g>
      </g>
    </g>
  </g>
</svg>
