<?xml version="1.0" encoding="utf-8"?>
<!-- Generator: Adobe Illustrator 24.1.1, SVG Export Plug-In . SVG Version: 6.00 Build 0)  -->
<svg version="1.1" xmlns="http://www.w3.org/2000/svg" xmlns:xlink="http://www.w3.org/1999/xlink" x="0px" y="0px"
	 viewBox="0 0 184.6 151.4" style="enable-background:new 0 0 184.6 151.4;" xml:space="preserve">
<style type="text/css">
	.st0{fill:#313473;}
	.st1{fill:none;stroke:#303473;stroke-width:1.92;stroke-miterlimit:10;}
	.st2{fill:#FFFFFF;}
	.st3{clip-path:url(#SVGID_2_);fill:#303473;}
	.st4{fill:#F4CA29;}
	.st5{fill:#303473;}
	.st6{fill:none;stroke:#FFFFFF;stroke-width:2.1328;stroke-miterlimit:10;}
	.st7{fill:none;}
	.st8{fill:none;stroke:#000000;stroke-width:2.1328;stroke-miterlimit:10;}
</style>
<g id="Capa_1">
</g>
<g id="Capa_2">
</g>
<g id="Capa_3">
	<g id="Logo_en_blanco">
		<path class="st6" d="M80.6,128.3H169c1,0,1.9-0.8,1.9-1.9V17.8c0-1-0.8-1.9-1.9-1.9H80.6c-1,0-1.9,0.8-1.9,1.9v108.6
			C78.8,127.5,79.6,128.3,80.6,128.3z"/>
		<path class="st2" d="M37.4,134.5h-17v-5.7h16.1c2.5,0,3.7-1.2,3.7-3.6v-24.8h-15c-3.2,0.1-4.8,1.5-4.8,4.4v8.8
			c0,2.6,1.3,3.9,4,3.9h13v5.6H23.2c-5.6,0-8.5-2.8-8.5-8.3l0-11.3c0-5.8,2.9-8.7,8.5-8.7h22.6V126
			C45.9,131.7,43.1,134.5,37.4,134.5z"/>
		<path class="st2" d="M52.4,123.2v-19.9c0-5.5,2.8-8.3,8.5-8.3h11.4v5.6H61.8c-2.4,0-3.7,1.2-3.7,3.5v19.1H52.4z"/>
		<g>
			<path class="st2" d="M168.5,78.1H80.8c-1.8,0-3.2,1.4-3.2,3.2v44.8c0,1.8,1.4,3.2,3.2,3.2h87.7c1.8,0,3.2-1.4,3.2-3.2V81.3
				C171.7,79.5,170.3,78.1,168.5,78.1z M89.7,123.2H84V94.7h5.7V123.2z M89.7,89.4h-5.8v-5.8h5.8V89.4z M127.5,123.2h-22.6
				c-5.6-0.1-8.5-3-8.5-8.7v-11.3c0-5.4,2.8-8.1,8.5-8.3H119v5.7h-13c-2.6,0-4,1.3-4,3.9v8.8c0,2.9,1.7,4.3,4.9,4.3h14.9V83.6h5.7
				V123.2z M165.3,116.1c-0.1,4.7-3,7.1-8.6,7.1h-22.3v-5.6h21.6c2.4,0,3.6-1.1,3.7-3.1c0-1.7-1.2-2.6-3.6-2.6h-13.2
				c-5.7,0-8.5-2.3-8.5-6.9V102c0-4.7,2.9-7.1,8.5-7.1h22.4v5.5h-22.4c-1.9,0-2.8,0.9-2.8,2.8c0,1.9,0.9,2.8,2.8,2.9h14
				c5.7,0,8.5,2.4,8.5,7.3V116.1z"/>
		</g>
		<g>
			<path class="st7" d="M153.4,40.2c1.1,0,2-0.9,2-2c0-1.1-0.9-2-2-2c-1.1,0-2,0.9-2,2C151.4,39.3,152.3,40.2,153.4,40.2z"/>
			<path class="st7" d="M146.9,24.3c0.6,0,1.3,0.2,1.8,0.7l10,10c1,1,1,2.5,0,3.5l-3.5,3.5c-1,1-2.5,1-3.5,0l-10-10
				c-1-1-1-2.5,0-3.5l3.5-3.5C145.6,24.6,146.3,24.3,146.9,24.3H99.7v50.8h60.2V24.3H146.9z M151.4,45.5l-7.9,7.9l1.9,1.9
				c1.5,1.5,1.4,3.9-0.2,5.5c-0.8,0.8-1.7,1.2-2.7,1.2c-0.1,1-0.5,1.9-1.2,2.7c-0.8,0.8-1.7,1.2-2.7,1.2c-0.1,1-0.5,1.9-1.2,2.7
				c-0.8,0.8-1.8,1.2-2.7,1.2c-0.1,1-0.5,1.9-1.2,2.7c-1.6,1.6-4,1.7-5.5,0.2l-4.5-4.6l-2.3,2.3c-1,1-2.6,0.9-3.7-0.2
				c-1.1-1.1-1.2-2.8-0.2-3.7c-1,1-2.6,0.9-3.7-0.2c-1.1-1.1-1.2-2.8-0.2-3.7c-1,1-2.6,0.9-3.7-0.2c-1.1-1.1-1.2-2.8-0.2-3.7
				c-1,1-2.6,0.9-3.7-0.2c-1.1-1.1-1.2-2.8-0.2-3.7l2.2-2.2l-6.9-6.9c-0.5-0.5-0.5-1.4,0-1.8c0.5-0.5,1.3-0.3,1.8,0.2l6.8,6.8
				c1-0.8,2.5-0.6,3.5,0.4c1.1,1.1,1.2,2.8,0.2,3.7c1-1,2.6-0.9,3.7,0.2c1.1,1.1,1.2,2.8,0.2,3.7c1-1,2.6-0.9,3.7,0.2
				c1.1,1.1,1.2,2.8,0.2,3.7c1-1,2.6-0.9,3.7,0.2c1,1,1.2,2.4,0.5,3.4l4.6,4.6c0.5,0.5,1.4,0.4,2-0.2c0.6-0.6,0.7-1.5,0.2-2
				l-3.8-3.8c-0.5-0.5-0.5-1.3,0-1.8c0.5-0.5,1.3-0.5,1.7,0l3.8,3.8c0.5,0.5,1.4,0.4,2-0.2c0.6-0.6,0.7-1.5,0.2-2l-3.8-3.8
				c-0.5-0.5-0.5-1.3,0-1.8c0.5-0.5,1.3-0.5,1.8,0l3.8,3.8c0.5,0.5,1.4,0.4,2-0.2s0.7-1.5,0.2-2l-3.8-3.8c-0.5-0.5-0.5-1.3,0-1.8
				c0.5-0.5,1.3-0.5,1.8,0l3.8,3.8c0.5,0.5,1.4,0.4,2-0.2c0.6-0.6,0.7-1.5,0.2-2c0,0-13.4-13.5-16-15.9c-0.3-0.3-1-1-2.5,0.5
				c-0.4,0.4-0.8,1-1.1,1.5l-1.7,3.2c-0.2,0.3-0.5,0.7-0.8,1c-1.3,1.3-2.9,1.8-4.5,1.4c-1.4-0.3-2.6-1.3-3.2-2.6
				c-0.5-0.9-0.6-1.8-0.3-2.5l5.1-12c0.2-0.4,0.5-0.9,1-1.4c0.8-0.8,3.8-3.3,8.3-1.9l11.4,3.6c0.2,0.1,0.4,0.2,0.5,0.3l11.4,11.4
				C151.9,44.2,151.9,45,151.4,45.5z"/>
			<path class="st2" d="M140,32.3c-0.1-0.1-0.3-0.2-0.5-0.3l-11.4-3.6c-4.6-1.4-7.5,1.1-8.3,1.9c-0.5,0.5-0.8,1-1,1.4l-5.1,12
				c-0.3,0.7-0.2,1.6,0.3,2.5c0.7,1.3,1.8,2.2,3.2,2.6c1.6,0.4,3.2-0.1,4.5-1.4c0.3-0.3,0.6-0.7,0.8-1l1.7-3.2
				c0.3-0.5,0.7-1.1,1.1-1.5c1.5-1.5,2.2-0.8,2.5-0.5c2.6,2.5,16,15.9,16,15.9c0.5,0.5,0.4,1.4-0.2,2c-0.6,0.6-1.5,0.7-2,0.2
				l-3.8-3.8c-0.5-0.5-1.3-0.5-1.8,0c-0.5,0.5-0.5,1.3,0,1.8l3.8,3.8c0.5,0.5,0.4,1.4-0.2,2s-1.5,0.7-2,0.2l-3.8-3.8
				c-0.5-0.5-1.3-0.5-1.8,0c-0.5,0.5-0.5,1.3,0,1.8l3.8,3.8c0.5,0.5,0.4,1.4-0.2,2c-0.6,0.6-1.5,0.7-2,0.2l-3.8-3.8
				c-0.5-0.5-1.3-0.5-1.7,0c-0.5,0.5-0.5,1.3,0,1.8l3.8,3.8c0.5,0.5,0.4,1.4-0.2,2c-0.6,0.6-1.5,0.7-2,0.2l-4.6-4.6
				c0.7-1,0.5-2.4-0.5-3.4c-1.1-1.1-2.8-1.2-3.7-0.2c1-1,0.9-2.6-0.2-3.7c-1.1-1.1-2.8-1.2-3.7-0.2c1-1,0.9-2.6-0.2-3.7
				c-1.1-1.1-2.8-1.2-3.7-0.2c1-1,0.9-2.6-0.2-3.7c-1-1-2.5-1.2-3.5-0.4l-6.8-6.8c-0.5-0.5-1.3-0.7-1.8-0.2c-0.5,0.5-0.5,1.4,0,1.8
				l6.9,6.9l-2.2,2.2c-1,1-0.9,2.6,0.2,3.7c1.1,1.1,2.8,1.2,3.7,0.2c-1,1-0.9,2.6,0.2,3.7c1.1,1.1,2.8,1.2,3.7,0.2
				c-1,1-0.9,2.6,0.2,3.7c1.1,1.1,2.8,1.2,3.7,0.2c-1,1-0.9,2.6,0.2,3.7c1.1,1.1,2.8,1.2,3.7,0.2l2.3-2.3l4.5,4.6
				c1.5,1.5,3.9,1.3,5.5-0.2c0.8-0.8,1.2-1.7,1.2-2.7c1-0.1,1.9-0.5,2.7-1.2c0.8-0.8,1.2-1.7,1.2-2.7c1-0.1,1.9-0.5,2.7-1.2
				c0.8-0.8,1.2-1.7,1.2-2.7c1-0.1,1.9-0.5,2.7-1.2c1.6-1.6,1.7-4,0.2-5.5l-1.9-1.9l7.9-7.9c0.5-0.5,0.5-1.3,0-1.7L140,32.3z"/>
			<path class="st2" d="M141.6,28.6c-1,1-1,2.5,0,3.5l10,10c1,1,2.5,1,3.5,0l3.5-3.5c1-1,1-2.5,0-3.5l-10-10
				c-0.5-0.5-1.1-0.7-1.8-0.7h0c-0.6,0-1.3,0.2-1.7,0.7L141.6,28.6z M153.4,36.1c1.1,0,2,0.9,2,2c0,1.1-0.9,2-2,2c-1.1,0-2-0.9-2-2
				C151.4,37,152.3,36.1,153.4,36.1z"/>
		</g>
		<g>
			<g>
				<path class="st7" d="M98.7,35.9c-1.3,0-2.3,1-2.3,2.3c0,1.3,1,2.3,2.3,2.3c1.3,0,2.3-1,2.3-2.3C101.1,36.9,100,35.9,98.7,35.9z"
					/>
				<path class="st2" d="M110.5,28.6l-3.5-3.5c-1-1-2.5-1-3.5,0l-10,10c-1,1-1,2.5,0,3.5l3.5,3.5c1,1,2.5,1,3.5,0l10-10
					C111.5,31.2,111.5,29.6,110.5,28.6z M98.7,40.6c-1.3,0-2.3-1-2.3-2.3c0-1.3,1-2.3,2.3-2.3c1.3,0,2.3,1,2.3,2.3
					C101.1,39.5,100,40.6,98.7,40.6z"/>
			</g>
		</g>
	</g>
</g>
</svg>
